<svg width="20" height="20" viewBox="0 0 20 20" fill="none" xmlns="http://www.w3.org/2000/svg">
<circle cx="10" cy="10" r="9.5" stroke="#3F3F3F"/>
<path d="M4 9.5C3.72386 9.5 3.5 9.72386 3.5 10C3.5 10.2761 3.72386 10.5 4 10.5V9.5ZM14.3536 10.3536C14.5488 10.1583 14.5488 9.84171 14.3536 9.64645L11.1716 6.46447C10.9763 6.2692 10.6597 6.2692 10.4645 6.46447C10.2692 6.65973 10.2692 6.97631 10.4645 7.17157L13.2929 10L10.4645 12.8284C10.2692 13.0237 10.2692 13.3403 10.4645 13.5355C10.6597 13.7308 10.9763 13.7308 11.1716 13.5355L14.3536 10.3536ZM4 10.5H14V9.5H4V10.5Z" fill="#3F3F3F"/>
</svg>
