<svg width="16" height="22" viewBox="0 0 16 22" fill="none" xmlns="http://www.w3.org/2000/svg">
<path d="M15.2197 5.47558C15.1414 5.18208 14.9824 4.86936 14.8648 4.59555C13.457 1.21244 10.3812 0 7.89758 0C4.57283 0 0.911003 2.22939 0.422119 6.82469V7.76353C0.422119 7.80271 0.435623 8.15467 0.454803 8.33073C0.728861 10.5207 2.45694 12.8482 3.74754 15.0382C5.13603 17.3846 6.5768 19.6928 8.00422 21.9999C8.8844 20.4943 9.7614 18.9689 10.6215 17.5022C10.8559 17.0718 11.1281 16.6417 11.3627 16.2308C11.5191 15.9573 11.818 15.6837 11.9545 15.4292C13.3429 12.8872 15.5778 10.3254 15.5778 7.80266V6.76628C15.5778 6.49278 15.2388 5.53455 15.2197 5.47558ZM7.95845 10.1886C6.98114 10.1886 5.9114 9.69989 5.38339 8.35032C5.30472 8.13549 5.31106 7.70497 5.31106 7.66553V7.05931C5.31106 5.33885 6.77189 4.55648 8.04274 4.55648C9.60729 4.55648 10.8173 5.8082 10.8173 7.37275C10.8173 8.93725 9.523 10.1886 7.95845 10.1886Z" fill="#1C7AFB"/>
</svg>
