<svg width="47" height="26" viewBox="0 0 47 26" fill="none" xmlns="http://www.w3.org/2000/svg">
<circle cx="34" cy="13" r="13" fill="#FFD11B"/>
<path d="M1 12.5C0.723858 12.5 0.5 12.7239 0.5 13C0.5 13.2761 0.723858 13.5 1 13.5V12.5ZM38.3535 13.3536C38.5488 13.1583 38.5488 12.8417 38.3535 12.6464L35.1716 9.46447C34.9763 9.2692 34.6597 9.2692 34.4645 9.46447C34.2692 9.65973 34.2692 9.97631 34.4645 10.1716L37.2929 13L34.4645 15.8284C34.2692 16.0237 34.2692 16.3403 34.4645 16.5355C34.6597 16.7308 34.9763 16.7308 35.1716 16.5355L38.3535 13.3536ZM1 13.5H38V12.5H1V13.5Z" fill="#3F3F3F"/>
</svg>
