<svg width="56" height="56" viewBox="0 0 56 56" fill="none" xmlns="http://www.w3.org/2000/svg">
<path d="M1.03043 50.0114C1.79821 49.1299 2.6779 48.3515 3.64733 47.6959C8.52111 44.0618 13.2103 40.1889 17.7148 36.077C17.6387 35.9874 17.5695 35.8909 17.5002 35.7945C17.0425 35.1431 16.6898 34.4247 16.4548 33.665C16.351 33.2309 17.7772 31.3564 18.6356 31.1635C16.7818 27.9327 15.7414 24.3033 15.6033 20.5852C15.541 17.2843 16.711 10.4756 21.5087 5.85836C25.1986 2.30242 30.3493 0.676056 36.8154 1.03441C44.0914 1.42722 51.1182 6.73357 54.2959 14.2452C55.7541 17.7929 56.2654 21.6558 55.7802 25.4584C55.295 29.261 53.8297 32.874 51.5267 35.9461C48.7021 39.6743 42.6099 43.3612 34.0669 42.4309C30.947 42.0438 27.9817 40.8564 25.4617 38.9852C25.1199 39.6338 24.614 40.1825 23.994 40.5771C23.7366 40.7773 23.4206 40.8886 23.094 40.8941C22.5972 40.7426 22.1292 40.5097 21.7094 40.2049C21.3491 39.9652 21.0046 39.7028 20.6779 39.4193C15.6795 43.5541 11.8442 49.0672 7.23347 53.6982C6.07041 54.8629 4.66499 56.0551 3.02425 55.9862C2.29536 55.932 1.60571 55.6366 1.06499 55.147C0.524269 54.6575 0.16362 54.0019 0.0404854 53.2848C-0.0256233 52.7008 0.0280113 52.1096 0.198177 51.547C0.368347 50.9843 0.651463 50.4619 1.03043 50.0114ZM50.3359 31.1704C52.6096 26.9809 53.1891 22.0849 51.9559 17.4841C51.0144 14.5759 48.086 7.57432 41.336 5.41732C32.3362 2.54362 26.3686 6.59574 24.7209 7.9051C21.8227 10.2701 19.8445 13.5677 19.1272 17.2291C17.7426 24.3341 20.1448 31.9353 25.7732 35.8978C31.4016 39.8604 45.3375 40.136 50.3359 31.1704Z" fill="#FFD11B"/>
<path d="M42.956 28.1106C44.5557 26.5737 45.5273 24.5018 45.6837 22.2942C45.7929 21.5249 45.6624 20.7408 45.3098 20.0477C45.1208 19.709 44.8255 19.4415 44.4692 19.2859C44.1128 19.1303 43.715 19.0953 43.3368 19.1862C42.326 19.5377 42.1183 20.8333 41.8968 21.8808C41.6337 23.1419 40.9968 24.4512 39.8199 24.9681C39.0637 25.2058 38.2792 25.3425 37.4868 25.3747C37.0903 25.3968 36.7056 25.5167 36.3673 25.7237C36.0289 25.9306 35.7475 26.218 35.5484 26.56C35.4183 27.0068 35.4512 27.4851 35.6412 27.9101C35.8313 28.3351 36.1662 28.6795 36.5868 28.8824C37.4176 29.3372 39.8545 30.9705 42.956 28.1106Z" fill="#FFD11B"/>
<path d="M44.1536 23.9963C44.1765 23.9954 44.1988 23.9886 44.2182 23.9765C44.2377 23.9644 44.2536 23.9475 44.2644 23.9274C44.6868 22.9078 44.6868 21.7632 44.2644 20.7436C44.2584 20.7288 44.2494 20.7154 44.2381 20.7042C44.2267 20.693 44.2131 20.6843 44.1982 20.6785C44.1833 20.6727 44.1674 20.6699 44.1514 20.6705C44.1354 20.671 44.1196 20.6748 44.1052 20.6816C44.0769 20.6937 44.0546 20.7164 44.043 20.7447C44.0313 20.7731 44.0313 20.8048 44.0429 20.8332C44.4372 21.7939 44.4372 22.8702 44.0429 23.8309C44.0361 23.8453 44.0323 23.861 44.0317 23.8769C44.0312 23.8928 44.0339 23.9087 44.0398 23.9235C44.0456 23.9384 44.0544 23.9519 44.0657 23.9632C44.0769 23.9745 44.0903 23.9835 44.1052 23.9894L44.1536 23.9963Z" fill="#F3F3F3"/>
<path d="M35.0084 15.0586C33.7619 15.0586 32.7515 14.0528 32.7515 12.812C32.7515 11.5713 33.7619 10.5654 35.0084 10.5654C36.2548 10.5654 37.2653 11.5713 37.2653 12.812C37.2653 14.0528 36.2548 15.0586 35.0084 15.0586Z" fill="#FFD11B"/>
<path d="M35.9015 13.5217C35.9255 13.5218 35.949 13.5146 35.9688 13.5011C35.9886 13.4875 36.0037 13.4682 36.0122 13.4459C36.1251 13.1565 36.1464 12.8398 36.0734 12.538C36.0004 12.2363 35.8366 11.9639 35.6038 11.7575C35.5928 11.7456 35.5794 11.7361 35.5645 11.7296C35.5496 11.7231 35.5335 11.7197 35.5173 11.7197C35.501 11.7197 35.4849 11.7231 35.47 11.7296C35.4551 11.7361 35.4417 11.7456 35.4307 11.7575C35.4087 11.7794 35.3964 11.8092 35.3964 11.8402C35.3964 11.8712 35.4087 11.9009 35.4307 11.9229C35.6268 12.0963 35.765 12.3251 35.8268 12.5788C35.8887 12.8325 35.8713 13.0989 35.7769 13.3425C35.7701 13.3564 35.7664 13.3716 35.7659 13.387C35.7654 13.4024 35.7682 13.4178 35.7741 13.4321C35.78 13.4464 35.7888 13.4593 35.8 13.47C35.8112 13.4807 35.8245 13.4889 35.8391 13.4941L35.9015 13.5217Z" fill="#F3F3F3"/>
<path d="M30.4393 18.8141C30.9314 19.0448 31.3129 19.4584 31.5019 19.9662C31.6909 20.4739 31.6723 21.0351 31.45 21.5293C31.0624 22.3287 30.1831 22.7973 29.7539 23.5967C29.5242 24.0395 29.4077 24.5318 29.4147 25.0301C29.3926 25.7224 29.5127 26.4118 29.7678 27.0562C30.0654 27.6521 30.2975 28.2783 30.4601 28.9238C30.532 29.2489 30.4902 29.5887 30.3417 29.887C30.1931 30.1853 29.9467 30.4241 29.6432 30.5639C29.2281 30.6494 28.7959 30.5703 28.4386 30.3434C26.3617 29.1925 25.3094 26.8563 24.9771 24.1411C24.9218 23.4244 25.0237 22.7043 25.276 22.0308C25.5282 21.3572 25.9247 20.7464 26.4378 20.2406C27.4693 19.2276 29.0201 18.2008 30.4393 18.8141Z" fill="#FFD11B"/>
<path d="M30.0238 21.6192C30.0461 21.6276 30.0707 21.6276 30.093 21.6192C30.2243 21.518 30.3341 21.3921 30.4163 21.2486C30.4986 21.1051 30.5515 20.9468 30.5721 20.7829C30.5926 20.619 30.5805 20.4526 30.5363 20.2934C30.4921 20.1341 30.4168 19.9851 30.3146 19.855C30.2925 19.8331 30.2626 19.8208 30.2315 19.8208C30.2003 19.8208 30.1705 19.8331 30.1484 19.855C30.1275 19.8788 30.1159 19.9094 30.1159 19.9411C30.1159 19.9728 30.1275 20.0034 30.1484 20.0273C30.2315 20.1309 30.2921 20.2505 30.3267 20.3786C30.3612 20.5066 30.3689 20.6404 30.3492 20.7715C30.3384 20.9074 30.2981 21.0394 30.2312 21.1584C30.1643 21.2773 30.0723 21.3805 29.9615 21.4607C29.9424 21.484 29.9319 21.5132 29.9319 21.5434C29.9319 21.5735 29.9424 21.6027 29.9615 21.6261C29.9825 21.6288 30.0039 21.6264 30.0238 21.6192Z" fill="#F3F3F3"/>
<path d="M3.11413 54.4702C3.39044 54.4754 3.66528 54.4287 3.92415 54.3324C4.22283 54.1965 4.49847 54.0151 4.7411 53.7948C5.55449 53.1071 6.29239 52.3356 6.94256 51.4931C6.95737 51.4673 6.96241 51.437 6.95668 51.4078C6.95094 51.3787 6.93479 51.3525 6.91129 51.3341C6.8878 51.3158 6.85849 51.3064 6.82864 51.3077C6.7988 51.3091 6.77041 51.3211 6.7487 51.3415C6.11245 52.1722 5.3883 52.9323 4.58873 53.6088C4.3677 53.8128 4.11531 53.9803 3.84108 54.105C3.28596 54.2566 2.7001 54.2566 2.14498 54.105C2.1295 54.102 2.11358 54.1021 2.09817 54.1054C2.08275 54.1087 2.06815 54.115 2.05524 54.124C2.04232 54.133 2.03132 54.1445 2.02295 54.1578C2.01459 54.1711 2.00897 54.1859 2.00647 54.2014C2.00227 54.2323 2.00989 54.2637 2.02785 54.2892C2.04581 54.3147 2.07281 54.3326 2.10341 54.3393C2.43574 54.4128 2.77397 54.4566 3.11413 54.4702Z" fill="#F3F3F3"/>
</svg>
