<svg width="32" height="31" viewBox="0 0 32 31" fill="none" xmlns="http://www.w3.org/2000/svg">
<path d="M5.42857 1.10714V9.96429M1 5.53571H9.85714M5.42857 23.25V29.8929M2.10714 26.5714H8.75M14.8851 12.3478L8.27462 14.5513C7.09801 14.9435 6.50971 15.1396 6.50971 15.5C6.50971 15.8604 7.09801 16.0565 8.27462 16.4487L14.8851 18.6522C15.1337 18.735 15.2579 18.7765 15.3441 18.8675C15.4303 18.9586 15.4647 19.085 15.5337 19.3378L17.7495 27.4625C18.1381 28.8873 18.3324 29.5997 18.7143 29.5997C19.0962 29.5997 19.2905 28.8873 19.679 27.4625L21.8949 19.3378C21.9638 19.085 21.9983 18.9586 22.0845 18.8675C22.1706 18.7765 22.2949 18.735 22.5434 18.6522L29.1539 16.4487C30.3306 16.0565 30.9189 15.8604 30.9189 15.5C30.9189 15.1396 30.3306 14.9435 29.1539 14.5513L22.5434 12.3478C22.2949 12.265 22.1706 12.2235 22.0845 12.1325C21.9983 12.0414 21.9638 11.915 21.8949 11.6622L19.679 3.53747C19.2905 2.11268 19.0962 1.40029 18.7143 1.40029C18.3324 1.40029 18.1381 2.11268 17.7495 3.53746L15.5337 11.6622C15.4647 11.915 15.4303 12.0414 15.3441 12.1325C15.2579 12.2235 15.1337 12.265 14.8851 12.3478Z" stroke="#1C90F5" stroke-width="2" stroke-linecap="round" stroke-linejoin="round"/>
</svg>
