<svg width="336" height="337" viewBox="0 0 336 337" fill="none" xmlns="http://www.w3.org/2000/svg">
<path d="M168 257.184C144.549 257.184 122.059 247.841 105.477 231.209C88.8947 214.578 79.5789 192.021 79.5789 168.5C79.5789 144.979 88.8947 122.422 105.477 105.791C122.059 89.1593 144.549 79.8158 168 79.8158L168 0C123.444 -1.94762e-06 80.7121 17.7526 49.206 49.3525C17.6999 80.9523 -5.41195e-06 123.811 -7.36537e-06 168.5C-9.31879e-06 213.189 17.6999 256.048 49.206 287.648C80.7121 319.247 123.444 337 168 337L168 257.184Z" fill="#FFD11B"/>
</svg>
