<svg width="32" height="36" viewBox="0 0 32 36" fill="none" xmlns="http://www.w3.org/2000/svg">
<path d="M1.52829 35L30.4713 34.8237C30.6313 34.8237 30.7828 34.7591 30.8833 34.6478C30.9838 34.5368 31.0222 34.391 30.9875 34.2517C30.9369 34.0462 30.8818 33.7718 30.8169 33.4493C30.4583 31.669 29.8581 28.6894 28.2193 27.1158C27.1385 26.0779 20.747 21.8984 19.4015 21.7241V18.8683C19.9138 18.6519 20.4545 18.3907 20.8694 18.1327C21.1187 17.9776 21.3227 17.8237 21.448 17.6809C21.8976 17.1702 22.5478 16.0213 22.9784 14.4009C23.2507 14.3611 23.5164 14.2553 23.7531 14.0895C24.2828 13.7187 24.6343 13.0942 24.7176 12.3759C24.8199 11.4981 24.6281 10.7498 24.1911 10.3236C24.0301 10.1666 23.8391 10.0521 23.6253 9.98311V6.06195C23.6253 1 18.0366 1 16.2002 1C14.3638 1 8.77504 1 8.77504 6.06127V9.98243C8.56119 10.0514 8.36971 10.1662 8.2092 10.323C7.77217 10.7494 7.58045 11.4975 7.6827 12.3752C7.76578 13.0935 8.11752 13.7183 8.64721 14.0888C8.88465 14.2548 9.15085 14.3606 9.42194 14.4009C9.85259 16.0213 10.5027 17.1693 10.952 17.6802C11.2868 18.061 12.1785 18.5214 12.9985 18.8679V21.7237C11.6533 21.898 4.86152 26.2536 3.78053 27.2916C2.14153 28.8656 1.54154 31.8451 1.18294 33.6251C1.1178 33.9479 1.06274 34.2223 1.01235 34.4275C0.977942 34.567 1.01629 34.7127 1.11657 34.8237C1.2171 34.9354 1.36827 35 1.52829 35Z" stroke="#1C90F5" stroke-width="2" stroke-linejoin="round"/>
<circle cx="22.5" cy="28.5" r="1.5" stroke="#1C90F5" stroke-width="2"/>
<path d="M22.5 23.5V26.5" stroke="#1C90F5" stroke-width="2" stroke-linecap="round"/>
<path d="M12 31C12 29.3431 11.5 27 9.5 27C7.5 27 7 29.3431 7 31" stroke="#1C90F5" stroke-width="2" stroke-linecap="round"/>
<path d="M9.5 24V27" stroke="#1C90F5" stroke-width="2" stroke-linecap="round"/>
</svg>
