<svg width="46" height="53" viewBox="0 0 46 53" fill="none" xmlns="http://www.w3.org/2000/svg">
<path d="M9.5674 24.41C9.74312 23.469 10.114 22.5751 10.6563 21.7857C10.8068 21.6007 11.0206 21.4778 11.2565 21.4409C11.4923 21.4039 11.7336 21.4555 11.9336 21.5857C12.0298 21.6484 12.1121 21.7302 12.1753 21.826C12.2385 21.9218 12.2813 22.0295 12.301 22.1425C12.3207 22.2556 12.3169 22.3714 12.2898 22.4829C12.2628 22.5944 12.213 22.6991 12.1436 22.7906C11.6873 23.4412 11.0909 25.2004 11.3686 26.7523C11.6463 28.3043 12.1195 29.5526 14.6981 30.0177C16.3351 30.3093 16.4969 31.5648 16.6128 32.4805C16.7432 33.4854 16.905 34.7386 18.4647 36.1122C19.1513 36.6572 19.9011 37.1175 20.6981 37.4834C21.111 37.6954 21.5432 37.9171 21.9705 38.1678C22.6128 36.8062 23.1415 34.4759 23.0981 33.083C23.0418 31.3552 22.4363 29.6901 21.3693 28.3284L21.1279 28.0272L21.2027 27.6633C21.3317 27.0217 21.3892 26.3679 21.3741 25.7137C21.0002 25.8321 20.6099 25.8906 20.2176 25.8872C18.4647 25.8703 17.115 25.1956 16.2023 24.1063C14.6281 22.2315 14.9951 20.1446 15.0627 19.0457C15.1303 17.9468 15.2052 17.0841 15.338 15.8502C15.5432 13.9392 15.7967 11.5583 15.6036 10.7125C15.012 8.10983 13.672 8.15321 13.1625 8.16767C13.0454 8.17941 12.927 8.16698 12.8148 8.13117C12.7027 8.09536 12.5991 8.03692 12.5105 7.95948C12.4219 7.88204 12.3501 7.78726 12.2998 7.68101C12.2494 7.57476 12.2214 7.45931 12.2176 7.34183C12.2138 7.22435 12.2342 7.10733 12.2776 6.99805C12.321 6.88877 12.3864 6.78956 12.4698 6.70656C12.5532 6.62356 12.6528 6.55855 12.7624 6.51557C12.872 6.47258 12.9893 6.45254 13.107 6.45668C14.3674 6.41571 16.6032 6.86877 17.3927 10.3486C17.6341 11.4571 17.3927 13.7754 17.1512 16.0141C17.0184 17.2455 16.9098 18.1372 16.8832 19.13C16.8567 20.1229 16.6997 21.9495 17.639 23.046C18.2281 23.7328 19.0997 24.1063 20.319 24.169C20.7633 24.1979 21.7339 23.7617 22.2506 22.8749C22.6364 22.0242 22.7731 21.082 22.6449 20.157C22.5167 19.2321 22.1289 18.3622 21.5263 17.648L21.0796 17.1082L21.5432 16.578C22.3929 15.6232 22.8476 14.3821 22.8156 13.1054C22.7851 12.0456 22.4163 11.0231 21.7629 10.1871L21.3524 9.66177L21.7846 9.14847C22.5964 8.19655 23.0264 6.97846 22.9918 5.72891C22.8953 2.6901 20.7947 0.634511 17.8828 0.726085C15.874 0.788741 14.3674 1.62014 13.5368 3.56006C11.5014 3.02266 9.12072 4.78666 8.58954 6.54103C8.03904 8.35805 8.37465 10.5317 10.6805 13.2886C11.0082 13.6827 11.3702 14.0472 11.7622 14.3778C11.8505 14.4493 11.9231 14.5382 11.9752 14.6391C12.0273 14.74 12.0578 14.8506 12.0649 14.9639C12.0719 15.0772 12.0553 15.1907 12.0161 15.2972C11.9768 15.4037 11.9159 15.501 11.837 15.5827C11.6691 15.7525 11.4441 15.8541 11.2055 15.8679C10.9669 15.8817 10.7317 15.8067 10.5453 15.6574C10.0708 15.261 9.63362 14.8222 9.23903 14.3465C7.90794 12.7176 7.06065 10.7491 6.79318 8.6641C3.31393 11.0378 2.86483 15.4116 4.45114 17.807C2.42057 20.8603 5.58594 24.5955 9.5674 24.41Z" fill="#FFD11B"/>
<path d="M19.8312 38.9847C18.8806 38.5873 18.0008 38.0388 17.226 37.3605C15.1834 35.5651 14.9613 33.8349 14.8116 32.6902C14.6908 31.7576 14.6522 31.7504 14.3601 31.6973C12.8728 31.4323 11.8514 30.9527 11.1367 30.3406C10.3324 30.6973 9.46673 30.8961 8.58707 30.9262C7.092 30.9543 5.61764 30.5744 4.32312 29.8273C4.22542 29.7681 4.14105 29.6893 4.07534 29.5959C4.00963 29.5026 3.964 29.3967 3.94132 29.2848C3.91864 29.173 3.91941 29.0577 3.94356 28.9462C3.96772 28.8347 4.01474 28.7293 4.08168 28.6369C4.22601 28.4477 4.43526 28.3185 4.66923 28.2741C4.9032 28.2296 5.1454 28.273 5.34927 28.3959C5.44826 28.4561 7.65026 29.7791 10.0696 28.9116C9.63517 28.0519 9.40703 27.1031 9.40316 26.1403C5.56174 26.2463 2.00764 23.9714 1.85311 20.1855C-3.11103 27.4657 2.80442 34.2903 9.55285 36.2182C11.3685 36.7387 12.6772 38.5533 12.6917 40.4451C12.6935 40.9167 12.6118 41.385 12.4502 41.8283C13.2832 41.9849 14.094 42.2422 14.8647 42.5946C14.7371 41.7818 14.7265 40.9549 14.8333 40.139C14.8802 39.9085 15.0142 39.7048 15.2075 39.5702C15.4008 39.4356 15.6385 39.3804 15.8715 39.4161C15.9861 39.4277 16.0971 39.462 16.1982 39.517C16.2993 39.572 16.3885 39.6465 16.4604 39.7363C16.5323 39.826 16.5856 39.9292 16.6172 40.0397C16.6487 40.1502 16.6579 40.2659 16.6441 40.38C16.6441 40.4017 16.224 43.1296 17.4313 44.4044C18.1965 45.2605 18.6949 46.3207 18.8655 47.4553C18.8782 47.5698 18.868 47.6856 18.8356 47.7962C18.8033 47.9068 18.7493 48.0098 18.6768 48.0994C18.6042 48.1891 18.5147 48.2635 18.4132 48.3183C18.3117 48.3732 18.2004 48.4075 18.0856 48.4192H17.9866C17.7677 48.4314 17.552 48.3631 17.3803 48.2272C17.2085 48.0913 17.0927 47.8972 17.0546 47.6818C16.5138 44.0261 12.7544 43.5176 11.4265 43.3851C10.644 44.1392 9.69186 44.6953 8.64984 45.0069C8.42621 45.0841 8.18151 45.0736 7.96538 44.9774C7.74926 44.8811 7.57789 44.7065 7.48607 44.4888C7.44753 44.3804 7.43148 44.2653 7.4389 44.1505C7.44631 44.0357 7.47703 43.9236 7.5292 43.8211C7.58137 43.7185 7.65389 43.6276 7.74236 43.5539C7.83082 43.4802 7.93339 43.4252 8.04381 43.3923C9.86432 42.785 10.8591 41.7416 10.847 40.4523C10.8287 39.8806 10.64 39.3273 10.3049 38.8633C9.96986 38.3992 9.50373 38.0455 8.96614 37.8473C5.20681 36.6881 2.44708 34.7892 0.742464 32.2034C-1.46436 37.9605 3.31629 40.3969 6.373 40.0426C6.60636 40.0111 6.84287 40.071 7.03287 40.2099C7.22287 40.3488 7.35155 40.5557 7.3919 40.7873C7.4042 40.9032 7.39318 41.0204 7.35947 41.132C7.32575 41.2436 7.27003 41.3473 7.19558 41.4371C7.12113 41.5269 7.02944 41.6009 6.92591 41.6549C6.82238 41.7088 6.7091 41.7416 6.59271 41.7512C6.35127 41.7801 6.10982 41.7994 5.86837 41.8066C4.91846 41.8364 3.97085 41.6968 3.07001 41.3945C2.34567 44.5755 5.61003 49.8772 11.5641 47.6963C12.3102 51.8653 18.4671 53.7932 22.0163 49.8314C25.5101 45.9371 23.0859 40.3463 19.8312 38.9847Z" fill="#FFD11B"/>
<path d="M24.2255 12.6115C24.2325 12.824 24.2543 13.0358 24.2907 13.2453C24.8798 12.4577 25.5561 11.739 26.3068 11.1029C26.5145 10.9342 26.7149 10.7752 26.9104 10.621C28.842 9.09552 29.8078 8.3316 29.6339 5.77236C29.6292 5.54474 29.7129 5.32412 29.8675 5.15666C30.022 4.9892 30.2354 4.88787 30.4631 4.87386C30.6908 4.85986 30.915 4.93426 31.089 5.08151C31.263 5.22876 31.3732 5.43744 31.3965 5.66391C31.6211 9.05697 30.1217 10.2426 28.0476 11.8837L27.4561 12.3657C26.5069 13.1726 25.6983 14.1311 25.0634 15.2021V15.2213L24.8799 15.5949C24.5374 16.2825 24.3662 17.0424 24.3809 17.8102C24.3956 18.578 24.5958 19.3308 24.9644 20.0049L25.1406 20.3374L24.9958 20.682C24.6507 21.4916 24.4697 22.3613 24.463 23.241C24.4564 24.1208 24.6243 24.9931 24.9571 25.8078C25.6405 24.9526 26.4981 24.2519 27.473 23.7522C28.9217 22.9882 30.6118 22.6292 31.8649 22.7882C32.7407 21.7959 33.8107 20.993 35.0091 20.4289C36.2075 19.8649 37.5088 19.5516 38.8331 19.5084H38.9055C40.4677 19.4578 43.5413 19.9012 44.9054 21.7351C45.497 18.424 44.3115 15.7105 40.8564 14.9876C41.5276 12.2621 39.8013 9.72208 38.2005 8.85454C37.6886 10.387 36.6868 11.7095 35.349 12.6187C35.7619 13.1778 36.747 14.6743 36.7687 16.2744C36.7643 16.4986 36.6721 16.7122 36.5119 16.8693C36.3517 17.0265 36.1362 17.1149 35.9116 17.1155H35.8947C35.7822 17.1206 35.6698 17.1036 35.564 17.0653C35.4581 17.027 35.3609 16.9682 35.2779 16.8923C35.1949 16.8164 35.1277 16.7248 35.0803 16.623C35.0328 16.5211 35.006 16.4108 35.0013 16.2985C34.9868 15.1731 34.219 14.0116 33.9075 13.5851C32.4758 14.5273 31.1502 15.5394 30.3052 18.0987C30.2449 18.2678 30.1341 18.4144 29.9878 18.5187C29.8414 18.623 29.6665 18.6799 29.4867 18.6819C29.3897 18.686 29.2927 18.6746 29.1993 18.6481C29.0914 18.6207 28.9903 18.5717 28.902 18.5041C28.8136 18.4364 28.74 18.3516 28.6856 18.2547C28.6312 18.1577 28.597 18.0508 28.5853 17.9403C28.5736 17.8298 28.5846 17.718 28.6175 17.6119C29.7112 14.3008 31.5921 13.0742 33.2532 11.9946C34.6633 11.0764 35.8874 10.2739 36.5659 8.20147L36.7035 7.51226C36.7844 7.10535 36.8192 6.69067 36.8073 6.27601C36.7083 3.09743 33.8568 0.588793 30.4549 0.697235C27.0529 0.805678 24.3656 3.48783 24.467 6.67605C24.4934 7.48498 24.7005 8.27783 25.073 8.99672L25.2807 9.40398L25.0392 9.78956C24.4826 10.6238 24.1983 11.6095 24.2255 12.6115Z" fill="#FFD11B"/>
<path d="M45.4391 33.0805C44.9322 33.6843 44.3854 34.2535 43.8021 34.7842C43.6297 34.9383 43.4055 35.0218 43.1742 35.0183C42.9428 35.0147 42.7213 34.9242 42.5538 34.7649C42.4739 34.6888 42.4108 34.5969 42.3685 34.4951C42.3262 34.3932 42.3057 34.2837 42.3082 34.1735C42.3107 34.0633 42.3362 33.9548 42.383 33.855C42.4299 33.7551 42.4971 33.6662 42.5804 33.5938C43.2508 32.9807 43.8656 32.3097 44.4178 31.5888L44.4057 31.5719L44.722 31.0779C45.573 29.7744 45.9261 28.209 45.7169 26.6672C45.5077 25.1255 44.7501 23.7102 43.5824 22.6796C43.5196 22.6217 43.4641 22.5639 43.3989 22.5109L43.3337 22.4531C42.2496 21.5855 40.6223 21.1108 38.908 21.1614C37.7482 21.2034 36.6117 21.4978 35.5778 22.0239C34.544 22.5501 33.6377 23.2953 32.9225 24.2074L32.5241 24.7039L31.9036 24.487C31.3507 24.2942 29.8779 24.3833 28.3399 25.1882C27.6389 25.5475 27.021 26.0492 26.5258 26.6609C26.0306 27.2726 25.669 27.9809 25.4642 28.7403C24.6699 31.6852 26.9395 33.3986 27.7435 33.9673C28.1346 34.2444 28.3181 34.6902 28.0791 35.0927C28.0009 35.2203 27.8919 35.3263 27.7619 35.4008C27.632 35.4754 27.4853 35.5161 27.3354 35.5192C27.1779 35.5252 27.0215 35.4903 26.8815 35.418C25.9573 34.907 25.1679 34.1843 24.5781 33.3094C24.2585 34.2599 24.1896 35.2766 24.3783 36.2613C24.5669 37.2461 25.0066 38.1657 25.655 38.9315L25.9109 39.2424C26.7062 40.0644 27.5723 40.8152 28.4992 41.486C28.8831 41.7824 29.2236 42.0475 29.4916 42.2716C31.9567 44.3778 31.4738 46.9467 30.875 48.0094C30.7975 48.1417 30.6874 48.2521 30.5551 48.3301C30.4229 48.4082 30.2729 48.4512 30.1193 48.4552C29.9671 48.4602 29.816 48.4271 29.6799 48.3588C29.5796 48.3131 29.4898 48.2472 29.4161 48.1653C29.3425 48.0833 29.2866 47.9871 29.2519 47.8826C29.2172 47.7781 29.2045 47.6676 29.2146 47.5579C29.2247 47.4483 29.2573 47.3419 29.3105 47.2455C29.4215 47.0407 30.3149 45.2212 28.2988 43.4982C28.0574 43.2909 27.7338 43.0451 27.3765 42.7752C26.7608 42.2933 26.022 41.7342 25.3411 41.1076C25.3041 41.3468 25.2888 41.5887 25.2952 41.8306C25.3136 42.4684 25.4788 43.0934 25.7781 43.6572L25.9858 44.0476L25.7443 44.4284C25.2618 45.2268 25.0204 46.1472 25.0489 47.0792C25.1383 49.8891 27.6469 52.0941 30.6433 52.0001C31.6453 51.9843 32.6235 51.6926 33.47 51.1573C34.3166 50.6219 34.9985 49.8637 35.4408 48.9661L35.5929 48.6456L35.9454 48.5251C36.9089 48.1947 37.7402 47.5635 38.3164 46.725C37.5685 46.6488 36.8468 46.4077 36.2038 46.0189C35.6243 45.6765 35.1325 45.2044 34.7671 44.6398C34.4017 44.0752 34.1728 43.4336 34.0984 42.7656C33.9728 41.539 34.3519 40.1654 34.7647 39.0978C34.0396 39.3352 33.2844 39.4691 32.5217 39.4954C31.8684 39.5387 31.2127 39.4569 30.5901 39.2545C30.4854 39.218 30.3892 39.1605 30.3075 39.0856C30.2258 39.0107 30.1604 38.9198 30.1151 38.8187C30.0699 38.7176 30.0459 38.6083 30.0445 38.4976C30.0432 38.3869 30.0645 38.277 30.1072 38.1749C30.2058 37.9669 30.3797 37.8039 30.5939 37.719C30.8081 37.634 31.0467 37.6333 31.2614 37.717C32.2465 38.0905 35.366 37.7555 36.4356 35.8662C37.5317 33.9143 37.8215 32.8973 37.4014 31.9165C37.2557 31.5547 37.0201 31.2359 36.7168 30.9901C36.4135 30.7443 36.0525 30.5796 35.6678 30.5116C35.1024 30.4177 34.5229 30.4537 33.9736 30.617C33.4242 30.7803 32.9194 31.0665 32.4976 31.4538C32.3241 31.6064 32.0995 31.6883 31.8683 31.6834C31.6371 31.6785 31.4161 31.5871 31.2493 31.4273C31.1699 31.3503 31.1075 31.2577 31.066 31.1553C31.0245 31.0529 31.0048 30.943 31.0082 30.8325C31.0116 30.7221 31.038 30.6136 31.0858 30.514C31.1335 30.4143 31.2015 30.3257 31.2855 30.2537C32.3741 29.2882 33.7894 28.7714 35.2452 28.8078C35.4925 27.8098 35.5065 26.7685 35.2863 25.7642C35.2612 25.6555 35.2583 25.5429 35.2777 25.4331C35.2971 25.3233 35.3385 25.2185 35.3993 25.125C35.4601 25.0315 35.5392 24.9511 35.6318 24.8887C35.7243 24.8263 35.8285 24.7831 35.9382 24.7617C36.1599 24.7068 36.3942 24.7389 36.5928 24.8515C36.7914 24.964 36.9391 25.1484 37.0054 25.3666C37.2889 26.6273 37.2748 27.9366 36.9643 29.191C37.9058 29.6024 38.6521 30.3602 39.048 31.3068C39.9003 33.3455 38.8814 35.2059 37.1478 38.0736C37.1478 38.0736 35.6436 40.7245 35.8392 42.6138C35.8814 43.0317 36.0225 43.4336 36.2509 43.7863C36.4793 44.1391 36.7883 44.4327 37.1527 44.6429C42.0589 47.4335 47.8391 39.5412 45.4391 33.0805Z" fill="#FFD11B"/>
</svg>
