<svg width="43" height="71" viewBox="0 0 43 71" fill="none" xmlns="http://www.w3.org/2000/svg">
<path fill-rule="evenodd" clip-rule="evenodd" d="M13.1258 0H29.8743C32.5362 0 34.694 2.1471 34.694 4.79568V11.0141C34.694 12.6564 33.8644 14.1059 32.5993 14.9702C32.7885 17.763 33.7182 20.4648 35.3045 22.7955C35.8614 23.6759 36.7085 24.4145 37.6399 25.2267C40.0399 27.3195 42.9999 29.9007 42.9999 36.655V64.6777C42.9999 68.1626 40.9596 70.984 38.4453 70.984H4.55458C2.04029 70.984 0 68.1626 0 64.6777V36.639C0 29.8847 2.96005 27.3035 5.36006 25.2107C6.29145 24.3986 7.1385 23.6599 7.69546 22.7795C9.28228 20.4593 10.2199 17.7699 10.425 14.9867C9.14633 14.1244 8.30603 12.6669 8.30603 11.0141V4.79568C8.30603 2.1471 10.4639 0 13.1258 0Z" fill="#FFD11B"/>
<path d="M29.7458 45.8465H24.0585C23.8455 45.8465 23.6411 45.7622 23.4905 45.6124C23.3398 45.4625 23.2552 45.2592 23.2552 45.0472V39.5322C23.2552 39.3202 23.1706 39.1169 23.02 38.967C22.8693 38.8171 22.665 38.7329 22.4519 38.7329H20.5482C20.3351 38.7329 20.1308 38.8171 19.9801 38.967C19.8295 39.1169 19.7449 39.3202 19.7449 39.5322V45.0472C19.7449 45.2592 19.6603 45.4625 19.5096 45.6124C19.359 45.7622 19.1546 45.8465 18.9416 45.8465H13.2543C13.0413 45.8465 12.8369 45.9307 12.6863 46.0806C12.5356 46.2305 12.451 46.4338 12.451 46.6457V48.54C12.451 48.752 12.5356 48.9554 12.6863 49.1052C12.8369 49.2551 13.0413 49.3393 13.2543 49.3393H18.9416C19.1546 49.3393 19.359 49.4235 19.5096 49.5734C19.6603 49.7233 19.7449 49.9266 19.7449 50.1386V55.9414C19.7449 56.1534 19.8295 56.3566 19.9801 56.5065C20.1308 56.6564 20.3351 56.7407 20.5482 56.7407H22.4519C22.665 56.7407 22.8693 56.6564 23.02 56.5065C23.1706 56.3566 23.2552 56.1534 23.2552 55.9414V50.1386C23.2552 49.9266 23.3398 49.7233 23.4905 49.5734C23.6411 49.4235 23.8455 49.3393 24.0585 49.3393H29.7458C29.9588 49.3393 30.1632 49.2551 30.3138 49.1052C30.4645 48.9554 30.5491 48.752 30.5491 48.54V46.6457C30.5491 46.4338 30.4645 46.2305 30.3138 46.0806C30.1632 45.9307 29.9588 45.8465 29.7458 45.8465Z" fill="#F3F3F3"/>
</svg>
