<svg width="32" height="23" viewBox="0 0 32 23" fill="none" xmlns="http://www.w3.org/2000/svg">
<path d="M1 3C1 2.05719 1 1.58579 1.29289 1.29289C1.58579 1 2.05719 1 3 1H29C29.9428 1 30.4142 1 30.7071 1.29289C31 1.58579 31 2.05719 31 3V19.7692C31 20.712 31 21.1834 30.7071 21.4763C30.4142 21.7692 29.9428 21.7692 29 21.7692H3C2.05719 21.7692 1.58579 21.7692 1.29289 21.4763C1 21.1834 1 20.712 1 19.7692V3Z" stroke="#1C90F5" stroke-width="2"/>
<path d="M7.92308 21.7693C7.92308 17.1539 5.61538 14.8462 0.999999 14.8462" stroke="#1C90F5" stroke-width="2"/>
<path d="M1.00002 7.92308C5.6154 7.92308 7.9231 5.61538 7.9231 1" stroke="#1C90F5" stroke-width="2"/>
<path d="M24.0769 1.00002C24.0769 5.6154 26.3846 7.9231 31 7.9231" stroke="#1C90F5" stroke-width="2"/>
<path d="M31 14.8462C26.3846 14.8462 24.0769 17.1539 24.0769 21.7693" stroke="#1C90F5" stroke-width="2"/>
<path d="M20.0385 11.3847C20.0385 13.615 18.2304 15.4231 16 15.4231C13.7696 15.4231 11.9615 13.615 11.9615 11.3847C11.9615 9.15427 13.7696 7.34619 16 7.34619C18.2304 7.34619 20.0385 9.15427 20.0385 11.3847Z" stroke="#1C90F5" stroke-width="2" stroke-linecap="round" stroke-linejoin="round"/>
</svg>
