<svg width="31" height="46" viewBox="0 0 31 46" fill="none" xmlns="http://www.w3.org/2000/svg">
<path d="M14.9197 12.4138C15.9625 12.4138 16.9765 12.5364 17.9481 12.7678C23.6543 14.1271 27.8966 19.2423 27.8966 25.3449C27.8966 32.4865 22.0866 38.2759 14.9197 38.2759C11.0171 38.2759 7.51684 36.5592 5.13794 33.8424" stroke="#1C90F5" stroke-width="2"/>
<path d="M1 34.0078H13.4417" stroke="#1C90F5" stroke-width="2" stroke-linecap="round"/>
<path d="M17.1714 39.1328V44.5562M17.1714 44.5562L11.822 44.5562M17.1714 44.5562H21.5842" stroke="#1C90F5" stroke-width="2" stroke-linecap="round"/>
<path d="M4.28877 21.7857C2.92274 21.4197 2.23973 21.2367 1.92907 20.6986C1.61841 20.1605 1.80142 19.4775 2.16745 18.1115L5.41245 6.00099C5.77848 4.63496 5.96149 3.95195 6.49957 3.64129C7.03765 3.33063 7.72066 3.51364 9.08669 3.87967L14.6859 5.37997C16.0519 5.746 16.7349 5.92901 17.0456 6.46709C17.3563 7.00517 17.1732 7.68818 16.8072 9.05421L13.5622 21.1647C13.1962 22.5307 13.0132 23.2138 12.4751 23.5244C11.937 23.8351 11.254 23.6521 9.88798 23.286L4.28877 21.7857Z" stroke="#1C90F5" stroke-width="2" stroke-linecap="round" stroke-linejoin="round"/>
<path d="M4.62854 25.0811L7.88419 25.9534" stroke="#1C90F5" stroke-width="2" stroke-linecap="round" stroke-linejoin="round"/>
</svg>
