<svg width="56" height="51" viewBox="0 0 56 51" fill="none" xmlns="http://www.w3.org/2000/svg">
<path d="M55.5741 15.2891C55.5741 12.0248 54.5336 8.84616 52.6046 6.2184C50.6757 3.59064 47.9597 1.6517 44.8541 0.685326C41.7486 -0.281043 38.4165 -0.224097 35.3455 0.84781C32.2745 1.91972 29.6258 3.95032 27.7871 6.64245C25.9483 3.95032 23.2996 1.91972 20.2286 0.84781C17.1576 -0.224097 13.8255 -0.281043 10.72 0.685326C7.6144 1.6517 4.89843 3.59064 2.96951 6.2184C1.04059 8.84616 -1.61287e-06 12.0248 0 15.2891C0 15.5009 0 15.7071 0 15.919C0 16.1308 0 16.337 0 16.5489C0 32.233 27.5304 50.5684 27.7643 50.5684C27.9981 50.5684 55.5741 32.2445 55.5741 16.5489C55.5741 16.337 55.5741 16.1251 55.5741 15.919C55.5741 15.7128 55.5741 15.5009 55.5741 15.2891Z" fill="#F3F3F3"/>
<path d="M6.38599 28.1043H16.6084L18.7415 21.7768L21.6559 31.9179L25.4316 13.6455L29.7605 35.1934L35.4639 20.9178L37.5001 27.921H50.1883" stroke="#FFD11B" stroke-width="2.5" stroke-linejoin="round"/>
</svg>
