<svg width="32" height="38" viewBox="0 0 32 38" fill="none" xmlns="http://www.w3.org/2000/svg">
<path d="M31 21.4545C31 29.5666 24.2843 36.4547 16 36.4547C7.71573 36.4547 1 29.5668 1 21.4547C1 13.3426 7.71573 6.45465 16 6.45465L29.6364 6.45468M29.6364 6.45468L23.9848 1M29.6364 6.45468L23.9848 11.9091" stroke="#1C90F5" stroke-width="2" stroke-linecap="round" stroke-linejoin="round"/>
<path d="M6.816 28V26.512C7.49867 25.9467 8.16 25.3867 8.8 24.832C9.45067 24.2773 10.0267 23.728 10.528 23.184C11.04 22.64 11.4453 22.112 11.744 21.6C12.0533 21.0773 12.208 20.5707 12.208 20.08C12.208 19.6213 12.08 19.216 11.824 18.864C11.5787 18.512 11.168 18.336 10.592 18.336C10.0053 18.336 9.56267 18.528 9.264 18.912C8.96533 19.296 8.816 19.76 8.816 20.304H6.832C6.85333 19.4827 7.03467 18.8 7.376 18.256C7.71733 17.7013 8.17067 17.2907 8.736 17.024C9.30133 16.7467 9.936 16.608 10.64 16.608C11.7813 16.608 12.6667 16.9227 13.296 17.552C13.936 18.1707 14.256 18.976 14.256 19.968C14.256 20.5867 14.112 21.1893 13.824 21.776C13.5467 22.3627 13.1787 22.928 12.72 23.472C12.2613 24.016 11.7653 24.528 11.232 25.008C10.6987 25.4773 10.1813 25.9147 9.68 26.32H14.528V28H6.816ZM21.208 28V25.92H15.688V24.288L20.936 16.8H23.256V24.144H24.728V25.92H23.256V28H21.208ZM17.88 24.144H21.336V19.056L17.88 24.144Z" fill="#1C90F5"/>
</svg>
