<svg width="54" height="55" viewBox="0 0 54 55" fill="none" xmlns="http://www.w3.org/2000/svg">
<g clip-path="url(#clip0_239_221)">
<path d="M27 42.6056C35.095 42.6056 41.6572 36.016 41.6572 27.8873C41.6572 19.7586 35.095 13.1689 27 13.1689C18.9051 13.1689 12.3429 19.7586 12.3429 27.8873C12.3429 36.016 18.9051 42.6056 27 42.6056Z" fill="#FEE121"/>
<g filter="url(#filter0_d_239_221)">
<path d="M21.0653 39.0011C20.9848 39.0011 20.9034 38.9822 20.8275 38.942C20.5791 38.8099 20.4844 38.5015 20.6163 38.2522L31.2918 18.088C31.4236 17.8393 31.7316 17.7444 31.9806 17.8765C32.2285 18.008 32.3237 18.3169 32.1919 18.5657L21.5159 38.7304C21.4242 38.9022 21.2475 39.0011 21.0653 39.0011Z" fill="#3F3F3F"/>
</g>
<rect x="28.5" y="29.5" width="6" height="9" rx="3" stroke="#3F3F3F"/>
<rect x="17.5" y="18.5" width="6" height="9" rx="3" stroke="#3F3F3F"/>
<path d="M17.7429 43.9918C20.4661 45.5736 23.6277 46.479 27 46.479C37.2252 46.479 45.5143 38.1553 45.5143 27.8874C45.5143 17.6196 37.2252 9.2959 27 9.2959C16.7748 9.2959 8.48572 17.6196 8.48572 27.8874C8.48572 31.1008 9.29754 34.1237 10.7265 36.7607" stroke="#3F3F3F" stroke-width="2" stroke-linecap="round"/>
<path d="M27 54.9998C25.6087 55.0036 24.2681 54.4781 23.25 53.5298C22.7039 53.0085 22.0293 52.6412 21.295 52.4656C20.5607 52.2899 19.7929 52.3121 19.07 52.5298C17.741 52.9392 16.3065 52.8319 15.0532 52.2293C13.7999 51.6268 12.8202 50.5734 12.31 49.2798C12.0372 48.5767 11.5823 47.9588 10.9918 47.4896C10.4013 47.0203 9.6966 46.7167 8.95001 46.6098C7.74678 46.4293 6.63712 45.8557 5.79414 44.9783C4.95117 44.101 4.42228 42.9693 4.29001 41.7598V40.7598V40.6998C4.34649 39.9487 4.20324 39.1959 3.87482 38.518C3.5464 37.8401 3.04449 37.2611 2.42001 36.8398L1.68 36.2298C0.815565 35.3728 0.25863 34.2542 0.09586 33.0479C-0.0669101 31.8415 0.173612 30.6153 0.780003 29.5598C1.16264 28.9116 1.36448 28.1726 1.36448 27.4198C1.36448 26.6671 1.16264 25.9281 0.780003 25.2798C0.172709 24.2264 -0.0683671 23.0014 0.0944715 21.7964C0.25731 20.5914 0.814884 19.4743 1.68 18.6198C1.92477 18.3926 2.18183 18.1789 2.45001 17.9798C3.07449 17.5585 3.5764 16.9796 3.90483 16.3017C4.23325 15.6237 4.37649 14.871 4.32 14.1198V14.0498V13.1098C4.43544 12.0709 4.84352 11.086 5.49676 10.2699C6.15 9.45383 7.02155 8.83998 8.01001 8.49982L9.01001 8.25982C9.74656 8.14181 10.4395 7.83335 11.0201 7.36501C11.6007 6.89667 12.0488 6.28472 12.32 5.58982C12.8468 4.31459 13.8314 3.28238 15.0803 2.69586C16.3292 2.10934 17.7522 2.01088 19.07 2.41982C19.7884 2.64608 20.5541 2.67734 21.2885 2.51042C22.023 2.34349 22.6999 1.98437 23.25 1.46982C24.2703 0.525227 25.6096 0.000488281 27 0.000488281C28.3904 0.000488281 29.7297 0.525227 30.75 1.46982C31.2932 1.98597 31.9626 2.3501 32.6911 2.52563C33.4195 2.70116 34.1813 2.68192 34.9 2.46982L35.9 2.24982C37.1093 2.10526 38.3323 2.3654 39.3781 2.98959C40.4238 3.61378 41.2333 4.56684 41.68 5.69982C41.9532 6.40182 42.4068 7.01929 42.995 7.48986C43.5832 7.96043 44.2852 8.26742 45.03 8.37982C46.4059 8.58095 47.6542 9.29669 48.5229 10.3825C49.3915 11.4683 49.8158 12.8433 49.71 14.2298C49.6525 14.9801 49.7942 15.7322 50.1208 16.41C50.4474 17.0879 50.9474 17.6673 51.57 18.0898L52.35 18.7298C53.2166 19.5837 53.7744 20.7016 53.9355 21.9074C54.0966 23.1132 53.8519 24.3384 53.24 25.3898C52.8614 26.0395 52.6619 26.7779 52.6619 27.5298C52.6619 28.2817 52.8614 29.0202 53.24 29.6698C53.851 30.7233 54.0951 31.9497 53.9341 33.1568C53.773 34.3639 53.2159 35.4835 52.35 36.3398L51.61 36.9498C50.9874 37.3723 50.4874 37.9518 50.1608 38.6296C49.8342 39.3075 49.6925 40.0596 49.75 40.8098C49.8536 42.197 49.4288 43.572 48.5608 44.6589C47.6927 45.7458 46.4457 46.4642 45.07 46.6698C44.3252 46.7784 43.6226 47.0828 43.034 47.5519C42.4454 48.021 41.992 48.638 41.72 49.3398C41.2117 50.6349 40.2323 51.6898 38.9784 52.2926C37.7245 52.8955 36.2889 53.0016 34.96 52.5898C34.2354 52.3723 33.4662 52.3502 32.7304 52.5258C31.9945 52.7014 31.3182 53.0685 30.77 53.5898C29.7541 54.5416 28.412 55.0677 27.02 55.0598L27 54.9998ZM27 52.9998C27.8856 53.0034 28.7397 52.671 29.39 52.0698C30.1996 51.3165 31.1937 50.7904 32.2718 50.5446C33.35 50.2987 34.4739 50.3419 35.53 50.6698C36.3757 50.9304 37.2886 50.8619 38.0859 50.478C38.8833 50.0942 39.5062 49.4234 39.83 48.5998C40.2338 47.5702 40.9023 46.6654 41.768 45.9771C42.6337 45.2887 43.6659 44.8412 44.76 44.6798C45.6374 44.5532 46.4344 44.0993 46.9909 43.4092C47.5474 42.7192 47.8221 41.8441 47.76 40.9598C47.701 40.0302 47.8499 39.0991 48.1959 38.2342C48.5418 37.3693 49.0762 36.5923 49.76 35.9598L50.54 35.3398C51.2694 34.8293 51.7761 34.0593 51.9564 33.1875C52.1367 32.3156 51.977 31.4078 51.51 30.6498C50.9551 29.6928 50.6629 28.6061 50.6629 27.4998C50.6629 26.3935 50.9551 25.3069 51.51 24.3498C51.9586 23.5944 52.1048 22.6972 51.9193 21.8384C51.7338 20.9796 51.2304 20.2228 50.51 19.7198L49.73 19.0898C49.0388 18.4523 48.5 17.6673 48.1538 16.793C47.8075 15.9188 47.6627 14.9777 47.73 14.0398C47.7921 13.1555 47.5174 12.2805 46.9609 11.5904C46.4044 10.9004 45.6074 10.4464 44.73 10.3198C43.6434 10.1553 42.619 9.70857 41.7592 9.0242C40.8993 8.33982 40.2341 7.44179 39.83 6.41982C39.5062 5.59662 38.8828 4.92655 38.085 4.54437C37.2873 4.16219 36.3744 4.09625 35.53 4.35982L34.53 4.57982C33.6012 4.71151 32.6547 4.63345 31.7601 4.35138C30.8654 4.06932 30.0453 3.5904 29.36 2.94982C28.7101 2.35107 27.8587 2.01868 26.975 2.01868C26.0913 2.01868 25.2399 2.35107 24.59 2.94982C23.7844 3.68928 22.7997 4.20557 21.7333 4.44761C20.667 4.68965 19.5559 4.64905 18.51 4.32982C17.6565 4.06133 16.7327 4.12797 15.9265 4.51619C15.1203 4.90442 14.4923 5.58509 14.17 6.41982C13.7689 7.45117 13.1011 8.35752 12.2349 9.04625C11.3687 9.73497 10.3352 10.1814 9.24001 10.3398C8.36161 10.4642 7.56321 10.9175 7.00629 11.6081C6.44937 12.2987 6.17548 13.175 6.24001 14.0598C6.32424 15.1602 6.11609 16.2632 5.63666 17.2572C5.15723 18.2512 4.42356 19.1007 3.51001 19.7198C2.78965 20.2228 2.28619 20.9796 2.10071 21.8384C1.91523 22.6972 2.06145 23.5944 2.51001 24.3498C3.06989 25.3052 3.36503 26.3925 3.36503 27.4998C3.36503 28.6072 3.06989 29.6945 2.51001 30.6498C2.0632 31.4074 1.91799 32.3054 2.10329 33.1652C2.28859 34.025 2.79081 34.7835 3.51001 35.2898L4.30001 35.9098C5.43116 36.9554 6.14223 38.3776 6.30001 39.9098V40.9098C6.23548 41.7946 6.50937 42.6709 7.06629 43.3615C7.62321 44.0521 8.4216 44.5054 9.30001 44.6298C10.3952 44.7883 11.4287 45.2347 12.2949 45.9234C13.1611 46.6121 13.8289 47.5185 14.23 48.5498C14.5442 49.3781 15.16 50.0569 15.9538 50.4501C16.7476 50.8433 17.6607 50.9218 18.51 50.6698C19.5677 50.3421 20.6931 50.299 21.7728 50.5448C22.8525 50.7906 23.8484 51.3166 24.66 52.0698C25.3062 52.6713 26.1573 53.0038 27.04 52.9998H27Z" fill="#3F3F3F"/>
</g>
<defs>
<filter id="filter0_d_239_221" x="16.5568" y="17.8169" width="19.6945" height="29.1841" filterUnits="userSpaceOnUse" color-interpolation-filters="sRGB">
<feFlood flood-opacity="0" result="BackgroundImageFix"/>
<feColorMatrix in="SourceAlpha" type="matrix" values="0 0 0 0 0 0 0 0 0 0 0 0 0 0 0 0 0 0 127 0" result="hardAlpha"/>
<feOffset dy="4"/>
<feGaussianBlur stdDeviation="2"/>
<feComposite in2="hardAlpha" operator="out"/>
<feColorMatrix type="matrix" values="0 0 0 0 0 0 0 0 0 0 0 0 0 0 0 0 0 0 0.6 0"/>
<feBlend mode="normal" in2="BackgroundImageFix" result="effect1_dropShadow_239_221"/>
<feBlend mode="normal" in="SourceGraphic" in2="effect1_dropShadow_239_221" result="shape"/>
</filter>
<clipPath id="clip0_239_221">
<rect width="54" height="55" fill="white"/>
</clipPath>
</defs>
</svg>
