<svg width="80" height="47" viewBox="0 0 80 47" fill="none" xmlns="http://www.w3.org/2000/svg">
<path d="M9 38V44C9 45.1046 9.89543 46 11 46H77C78.1046 46 79 45.1046 79 44V15C79 13.8954 78.1046 13 77 13H70" stroke="#3F3F3F" stroke-width="2"/>
<path d="M66 10.8145H6V33.3863H66V10.8145Z" fill="#FEE121"/>
<path d="M35.9998 31.1813C30.9938 31.1813 26.9209 27.1084 26.9209 22.1024C26.9209 17.0963 30.9938 13.0234 35.9998 13.0234C41.0059 13.0234 45.0788 17.0963 45.0788 22.1024C45.0788 27.1084 41.0059 31.1813 35.9998 31.1813ZM35.9998 14.6024C31.8646 14.6024 28.4998 17.9671 28.4998 22.1024C28.4998 26.2376 31.8646 29.6024 35.9998 29.6024C40.1351 29.6024 43.4998 26.2376 43.4998 22.1024C43.4998 17.9671 40.1351 14.6024 35.9998 14.6024Z" fill="#3F3F3F"/>
<path d="M25.4122 31.1799H13.7343C13.2985 31.1799 12.9448 30.827 12.9448 30.3904C12.9456 28.1641 11.1543 26.3728 8.95244 26.3728C8.51665 26.3728 8.16296 26.0199 8.16296 25.5833V18.6178C8.16296 18.182 8.51665 17.8283 8.95244 17.8283C11.1432 17.8283 12.9338 16.0457 12.9448 13.8549C12.9472 13.4207 13.3001 13.0693 13.7343 13.0693H25.4122C25.848 13.0693 26.2016 13.423 26.2016 13.8588C26.2016 14.2946 25.848 14.6483 25.4122 14.6483H14.4645C14.1061 17.0767 12.1711 19.0038 9.74191 19.3512V24.8491C12.1924 25.198 14.1345 27.1472 14.4724 29.6009H25.4122C25.848 29.6009 26.2016 29.9538 26.2016 30.3904C26.2016 30.827 25.8488 31.1799 25.4122 31.1799Z" fill="#3F3F3F"/>
<path d="M58.2644 31.18H46.5873C46.1507 31.18 45.7979 30.8272 45.7979 30.3906C45.7979 29.954 46.1507 29.6011 46.5873 29.6011H57.5302C57.8776 27.1585 59.8157 25.2219 62.2568 24.8737V19.3758C59.815 19.0285 57.8776 17.0911 57.5302 14.6493H46.5873C46.1507 14.6493 45.7979 14.2956 45.7979 13.8598C45.7979 13.424 46.1507 13.0703 46.5873 13.0703H58.2644C58.701 13.0703 59.0539 13.424 59.0539 13.8598C59.0539 16.0616 60.8452 17.8529 63.0471 17.8529C63.4836 17.8529 63.8365 18.2066 63.8365 18.6424V25.6079C63.8365 26.0445 63.4836 26.3974 63.0471 26.3974C60.8452 26.3974 59.0539 28.1895 59.0539 30.3914C59.0539 30.8272 58.701 31.18 58.2644 31.18Z" fill="#3F3F3F"/>
<path d="M43 5H69C70.1046 5 71 5.89543 71 7V36C71 37.1046 70.1046 38 69 38H3C1.89543 38 1 37.1046 1 36V7C1 5.89543 1.89543 5 3 5H31" stroke="#3F3F3F" stroke-width="2" stroke-linecap="round"/>
<path d="M46.0189 10C45.7678 10 45.5167 9.92015 45.3254 9.76125L40.2876 5.5762C39.9041 5.25759 39.9041 4.74261 40.2876 4.42401L45.3254 0.238954C45.7089 -0.0796513 46.3288 -0.0796513 46.7124 0.238954C47.0959 0.557559 47.0959 1.07254 46.7124 1.39115L42.3681 5.0001L46.7124 8.60906C47.0959 8.92766 47.0959 9.44265 46.7124 9.76125C46.5201 9.92096 46.27 10 46.0189 10Z" fill="#3F3F3F"/>
</svg>
