<svg width="32" height="33" viewBox="0 0 32 33" fill="none" xmlns="http://www.w3.org/2000/svg">
<path d="M31 31.0784V26.3615C31 25.09 31 24.4543 30.7215 23.9834C30.55 23.6934 30.3081 23.4515 30.0181 23.28C29.5472 23.0015 28.9115 23.0015 27.64 23.0015H14.7446C13.4732 23.0015 12.8375 23.0015 12.3666 23.28C12.0766 23.4515 11.8346 23.6934 11.6632 23.9834C11.3846 24.4543 11.3846 25.09 11.3846 26.3615V31.0784" stroke="#1C7AFB" stroke-width="2" stroke-linecap="round" stroke-linejoin="round"/>
<path d="M1 25.3091V20.3922C1 19.3098 1 18.7686 1.20394 18.3523C1.39921 17.9537 1.72153 17.6314 2.12012 17.4361C2.53642 17.2322 3.07762 17.2322 4.16 17.2322H9.07692" stroke="#1C7AFB" stroke-width="2" stroke-linecap="round" stroke-linejoin="round"/>
<path d="M27.1538 13.0012C27.1538 15.9751 24.743 18.3858 21.7692 18.3858C18.7953 18.3858 16.3845 15.9751 16.3845 13.0012C16.3845 10.0274 18.7953 7.61661 21.7692 7.61661C24.743 7.61661 27.1538 10.0274 27.1538 13.0012Z" stroke="#1C7AFB" stroke-width="2"/>
<path d="M14.2051 3.4072C13.2405 1.95632 11.5909 1.00009 9.71796 1.00009C6.74412 1.00009 4.33334 3.41087 4.33334 6.38471C4.33334 8.7292 5.83172 10.7237 7.92309 11.4629" stroke="#1C7AFB" stroke-width="2" stroke-linecap="round"/>
</svg>
