<svg width="59" height="55" viewBox="0 0 59 55" fill="none" xmlns="http://www.w3.org/2000/svg">
<g clip-path="url(#clip0_239_209)">
<path d="M3.88159 10.8799L11.0063 41.0562L33.3816 35.5876L26.2569 5.42236L3.88159 10.8799Z" fill="#FFD11B"/>
<path d="M18.7259 1.10422L19.196 3.08546L7.49644 5.87483L7.02637 3.89359C6.81744 3.09849 7.45727 2.23822 8.44964 2.01663L16.6106 0.0614617C17.5899 -0.173159 18.5431 0.283048 18.7259 1.10422Z" fill="#3F3F3F"/>
<path d="M36.3768 37.6698L9.43745 44.1081L1.07297 9.27947L28.0096 2.84287L36.3768 37.6698Z" stroke="#3F3F3F" stroke-width="2"/>
<path d="M21.7368 9.2959H21.3026C18.5412 9.2959 16.3026 11.5345 16.3026 14.2959V23.9892C16.3026 30.4204 21.5161 35.6339 27.9473 35.6339V35.6339C34.3786 35.6339 39.5921 30.4204 39.5921 23.9892V14.2959C39.5921 11.5345 37.3075 9.2959 34.546 9.2959V9.2959" stroke="#3F3F3F" stroke-width="2"/>
<g filter="url(#filter0_d_239_209)">
<path d="M21.0318 8.84987C21.2991 8.17366 21.9231 7.74658 22.654 7.74658C23.4562 7.74658 23.8483 8.31602 23.8483 9.49049C23.8483 10.665 23.4562 11.2344 22.654 11.2344C21.9409 11.2344 21.2991 10.8073 21.0318 10.1311L20.9604 9.95316L21.0852 9.8108C21.1387 9.73962 21.21 9.63285 21.21 9.49049C21.21 9.34813 21.1387 9.24136 21.0852 9.17018L20.9604 9.02782L21.0318 8.84987Z" fill="#3F3F3F"/>
</g>
<path d="M35.4219 8.84987C35.1545 8.17366 34.5305 7.74658 33.7996 7.74658C32.9975 7.74658 32.6053 8.31602 32.6053 9.49049C32.6053 10.665 32.9975 11.2344 33.7996 11.2344C34.5127 11.2344 35.1545 10.8073 35.4219 10.1311L35.4932 9.95316L35.3684 9.8108C35.3149 9.73962 35.2436 9.63285 35.2436 9.49049C35.2436 9.34813 35.3149 9.24136 35.3684 9.17018L35.4932 9.02782L35.4219 8.84987Z" fill="#3F3F3F"/>
<path d="M54.1184 32.5351C54.1184 34.5477 52.4827 36.183 50.4605 36.183C48.4383 36.183 46.8026 34.5477 46.8026 32.5351C46.8026 30.5224 48.4383 28.8872 50.4605 28.8872C52.4827 28.8872 54.1184 30.5224 54.1184 32.5351Z" stroke="#3F3F3F" stroke-width="2"/>
<path d="M27.9474 35.6338V41.0563C27.9474 48.3294 32.9871 54.2253 39.204 54.2253C45.4208 54.2253 50.4605 48.3294 50.4605 41.0563V35.6338" stroke="#3F3F3F" stroke-width="2"/>
</g>
<defs>
<filter id="filter0_d_239_209" x="16.9604" y="7.74658" width="10.8879" height="11.4878" filterUnits="userSpaceOnUse" color-interpolation-filters="sRGB">
<feFlood flood-opacity="0" result="BackgroundImageFix"/>
<feColorMatrix in="SourceAlpha" type="matrix" values="0 0 0 0 0 0 0 0 0 0 0 0 0 0 0 0 0 0 127 0" result="hardAlpha"/>
<feOffset dy="4"/>
<feGaussianBlur stdDeviation="2"/>
<feComposite in2="hardAlpha" operator="out"/>
<feColorMatrix type="matrix" values="0 0 0 0 0 0 0 0 0 0 0 0 0 0 0 0 0 0 0.3 0"/>
<feBlend mode="color-dodge" in2="BackgroundImageFix" result="effect1_dropShadow_239_209"/>
<feBlend mode="normal" in="SourceGraphic" in2="effect1_dropShadow_239_209" result="shape"/>
</filter>
<clipPath id="clip0_239_209">
<rect width="59" height="55" fill="white"/>
</clipPath>
</defs>
</svg>
