<svg width="32" height="32" viewBox="0 0 32 32" fill="none" xmlns="http://www.w3.org/2000/svg">
<path d="M19.9718 10.3182C19.9718 12.5486 18.1637 14.3567 15.9333 14.3567C13.7029 14.3567 11.8948 12.5486 11.8948 10.3182C11.8948 8.08787 13.7029 6.27979 15.9333 6.27979C18.1637 6.27979 19.9718 8.08787 19.9718 10.3182Z" stroke="#1C90F5" stroke-width="2" stroke-linecap="round" stroke-linejoin="round"/>
<path d="M9.36143 3.6832C11.0921 1.95307 13.3924 1 15.8393 1C18.2862 1 20.5865 1.95307 22.3172 3.6832C25.5438 6.90933 25.9412 12.9829 23.1561 16.696L15.8393 27.2629L8.51076 16.68C5.73743 12.9829 6.1353 6.90933 9.36143 3.6832Z" stroke="#1C90F5" stroke-width="2" stroke-linejoin="round"/>
<path d="M22.2709 23.9297C27.8794 24.5899 30.8666 26.3691 30.8666 27.4001C30.8666 28.8475 25.1855 30.8667 15.9333 30.8667C6.68101 30.8667 0.999939 28.8475 0.999939 27.4001C0.999939 26.3691 3.98714 24.5899 9.59567 23.9297" stroke="#1C90F5" stroke-width="2" stroke-linecap="round"/>
</svg>
