<svg width="128" height="42" viewBox="0 0 128 42" fill="none" xmlns="http://www.w3.org/2000/svg">
<g clip-path="url(#clip0_218_706)">
<path d="M51.8021 13.4586C51.1308 9.59377 48.4119 6.40021 44.7166 5.13228C42.4181 4.33898 39.8076 4.30508 37.1768 5.03058C34.2545 5.83066 31.3389 7.53254 28.5047 10.0684C25.6705 7.53254 22.755 5.83744 19.8326 5.03058C17.2018 4.30508 14.5914 4.33898 12.2928 5.13228C8.6043 6.40021 5.89215 9.59377 5.2209 13.4586C4.39369 18.1981 6.59731 23.0664 11.269 26.8159C14.4897 29.406 17.5341 31.3384 20.2259 33.0539C23.3787 35.0609 28.6471 39.0545 28.6471 39.0545C30.9253 36.7899 33.651 35.0609 36.8039 33.0539C39.4889 31.3452 42.5333 29.406 45.7608 26.8159C50.4257 23.0664 52.6293 18.1981 51.8021 13.4586ZM45.1505 26.2464C41.9434 28.8229 38.9058 30.7553 36.2276 32.4572C33.2713 34.3422 31.4135 35.4135 29.2099 37.4815C31.5491 28.111 37.3463 24.592 41.4552 21.69C42.7435 20.7746 43.8623 19.9881 44.581 19.2287C45.8828 17.8658 46.5812 16.4284 46.9202 15.7368L46.9813 15.608C47.2864 14.9842 47.083 14.5909 46.8185 14.4417C46.4998 14.2587 46.0862 14.3875 45.8557 14.7333C45.4692 15.3232 44.3572 16.9979 44.0453 17.4251C43.9911 17.4997 43.9165 17.5607 43.8555 17.52C43.7945 17.4794 43.7606 17.3437 43.8691 17.181C44.2013 16.6996 45.5777 14.5909 45.8693 13.9942C46.1744 13.3704 45.971 12.9772 45.7065 12.828C45.3879 12.6449 44.9743 12.7738 44.7437 13.1196C44.364 13.7027 43.2588 15.3639 42.9334 15.8114C42.8588 15.9131 42.7774 15.9538 42.7232 15.9199C42.6621 15.8792 42.6418 15.7368 42.7639 15.5605C43.13 15.0316 44.4522 13.0043 44.7573 12.3873C45.0624 11.7635 44.859 11.3702 44.5946 11.2211C44.2759 11.038 43.8623 11.1668 43.6317 11.5126L43.5707 11.6075C43.1775 12.211 42.1333 13.8044 41.8282 14.1976C41.7265 14.3265 41.6315 14.3197 41.5705 14.2858C41.5027 14.2383 41.4756 14.1231 41.5705 13.9807L41.6654 13.8247C42.0451 13.2145 42.9401 11.7771 43.2114 11.2278C43.5165 10.604 43.3131 10.2108 43.0486 10.0616C42.73 9.87855 42.3163 10.0074 42.0858 10.3532L42.0723 10.3735C41.7197 10.9092 40.8925 12.1703 40.2755 13.045C39.9025 13.5739 39.6449 13.723 39.5364 13.6891C39.5025 13.6756 39.1703 13.5264 39.1499 11.9059C39.1364 11.0787 38.7702 10.9363 38.6143 10.9159C38.2074 10.8617 37.8006 11.3363 37.5565 12.1568C36.0852 17.1064 30.749 21.5611 24.8704 22.7477C19.8869 23.7512 15.4864 22.2866 12.4691 18.6117C11.4927 17.4251 10.6859 16.069 10.3875 15.452C10.2316 15.1333 10.2316 14.8689 10.4011 14.774C10.5299 14.6994 10.7333 14.7469 10.8622 14.9503C11.1876 15.4452 12.3471 17.1946 12.6861 17.6556C12.9098 17.9675 13.2082 17.9675 13.3913 17.8387C13.615 17.6828 13.7031 17.3166 13.4726 16.9844C13.1472 16.5098 11.7843 14.4282 11.4995 13.8451C11.3436 13.5264 11.3436 13.262 11.5063 13.167C11.6351 13.0924 11.8385 13.1399 11.9674 13.3433C12.3064 13.8586 13.4523 15.5808 13.7913 16.0487C14.0218 16.3742 14.3337 16.3742 14.5168 16.2453C14.7338 16.0962 14.8219 15.73 14.5643 15.3639C14.1778 14.8011 12.8827 12.8077 12.5979 12.2381C12.442 11.9194 12.4488 11.655 12.6115 11.5601C12.7403 11.4855 12.9437 11.533 13.0726 11.7364L13.1539 11.8584C13.5811 12.5161 14.5914 14.0553 14.9033 14.4485C15.1338 14.7469 15.466 14.7536 15.6695 14.6113C15.8797 14.4621 15.9814 14.1366 15.7712 13.7976L15.6695 13.6349C15.2898 13.0314 14.4015 11.6075 14.1439 11.0787C13.9879 10.76 13.9879 10.4956 14.1507 10.4006C14.2795 10.3261 14.4829 10.3735 14.6185 10.5769C14.9711 11.1194 15.8051 12.3873 16.4356 13.2755C16.7204 13.6756 17.1544 14.1976 17.5951 14.062C18.0223 13.9332 18.2257 13.2484 18.246 11.9262C18.2528 11.4991 18.402 11.2956 18.5376 11.2889C18.7138 11.2821 18.9986 11.5669 19.1003 12.2517C19.3648 14.1163 19.575 14.9096 20.5039 15.2283C22.3481 15.8656 28.5115 11.038 28.5115 11.038C33.8341 6.22392 39.2787 4.13557 44.0996 5.78998C47.6661 7.01723 50.4121 9.53275 51.063 13.2687C51.8631 17.8523 49.707 22.585 45.1505 26.2464Z" fill="#1C90F5"/>
<path d="M76.633 16.3012L76.5 16.3603C75.7315 15.6509 74.8053 15.0843 73.7215 14.6607C72.6476 14.237 71.4652 14.0252 70.1745 14.0252C68.933 14.0252 67.795 14.2222 66.7605 14.6163C65.7259 15.0006 64.8343 15.5622 64.0854 16.3012C63.3465 17.0401 62.7701 17.9466 62.3563 19.0205C61.9425 20.0945 61.7355 21.3163 61.7355 22.6858C61.7355 24.1933 61.9326 25.6022 62.3267 26.9127C62.7208 28.2132 63.3071 29.3414 64.0854 30.2971C64.8638 31.2528 65.8343 32.0066 66.997 32.5583C68.1694 33.1002 69.5341 33.3712 71.0908 33.3712C71.6524 33.3712 72.214 33.3121 72.7756 33.1938C73.3372 33.0756 73.8742 32.9032 74.3866 32.6766C74.9088 32.4401 75.3965 32.1593 75.8497 31.8341C76.3128 31.4992 76.7315 31.1198 77.106 30.6961L77.2685 30.7996L76.0862 33.8146C75.3472 34.1003 74.5294 34.3171 73.6328 34.4649C72.7461 34.6225 71.8495 34.7013 70.943 34.7013C69.1202 34.7013 67.4502 34.4402 65.9329 33.918C64.4254 33.386 63.1248 32.6372 62.0311 31.6716C60.9473 30.706 60.1 29.5483 59.4891 28.1985C58.8881 26.8388 58.5876 25.3313 58.5876 23.676C58.5876 22.74 58.7058 21.8188 58.9423 20.9123C59.1886 20.0058 59.5433 19.1437 60.0064 18.3259C60.4695 17.5081 61.0409 16.7593 61.7208 16.0795C62.4006 15.3898 63.1741 14.7937 64.0411 14.2912C64.918 13.7887 65.8787 13.3995 66.9231 13.1236C67.9773 12.8379 69.1153 12.695 70.3371 12.695C72.2387 12.695 74.0023 12.9857 75.628 13.567L76.633 16.3012ZM78.9534 29.8833C78.9534 29.1049 79.111 28.43 79.4263 27.8585C79.7514 27.2871 80.18 26.7994 80.7121 26.3954C81.2441 25.9914 81.8501 25.6663 82.5299 25.42C83.2098 25.1638 83.9143 24.9667 84.6434 24.8288C85.3725 24.681 86.0917 24.5825 86.8011 24.5332C87.5105 24.4741 88.1608 24.4396 88.752 24.4297V23.676C88.752 23.0257 88.6682 22.4641 88.5007 21.9912C88.3333 21.5182 88.0968 21.1291 87.7913 20.8236C87.4859 20.5083 87.1164 20.2768 86.6829 20.129C86.2592 19.9713 85.7912 19.8925 85.2789 19.8925C84.9242 19.8925 84.5744 19.9221 84.2295 19.9812C83.8847 20.0403 83.5251 20.1388 83.1507 20.2768C82.7861 20.4147 82.3969 20.6019 81.9831 20.8384C81.5791 21.0749 81.1407 21.3754 80.6678 21.7399L80.52 21.6513L81.5249 19.5674C81.8501 19.4196 82.1703 19.3014 82.4856 19.2127C82.8009 19.1141 83.1211 19.0353 83.4462 18.9762C83.7714 18.9171 84.1015 18.8777 84.4365 18.858C84.7813 18.8284 85.1409 18.8136 85.5153 18.8136C86.5499 18.8136 87.4317 18.9417 88.1608 19.1979C88.8998 19.4442 89.5008 19.7891 89.9639 20.2324C90.4368 20.666 90.7817 21.1783 90.9984 21.7695C91.2152 22.3508 91.3236 22.9765 91.3236 23.6464V28.4645C91.3236 29.302 91.3334 30.036 91.3531 30.6666C91.3827 31.2873 91.4123 31.8243 91.4418 32.2775C91.4812 32.7308 91.5256 33.1101 91.5748 33.4155C91.6339 33.721 91.6931 33.9771 91.7522 34.184V34.2432H88.486V34.184C88.5352 34.0264 88.5697 33.8491 88.5894 33.652C88.619 33.4549 88.6436 33.2185 88.6633 32.9426C88.4564 33.1199 88.2101 33.3022 87.9244 33.4894C87.6485 33.6766 87.3283 33.8491 86.9637 34.0067C86.609 34.1545 86.21 34.2727 85.7666 34.3614C85.3331 34.4599 84.8552 34.5092 84.333 34.5092C82.6186 34.5092 81.2934 34.1102 80.3574 33.3121C79.4214 32.5041 78.9534 31.3612 78.9534 29.8833ZM88.752 25.5825C87.8554 25.5924 86.9933 25.6466 86.1656 25.7451C85.338 25.8338 84.604 26.0259 83.9635 26.3215C83.3329 26.6171 82.8255 27.0407 82.4413 27.5925C82.0669 28.1344 81.8797 28.8586 81.8797 29.7651C81.8797 30.9277 82.1703 31.8144 82.7516 32.4253C83.3329 33.0362 84.1359 33.3416 85.1606 33.3416C85.6336 33.3416 86.0622 33.2776 86.4464 33.1495C86.8405 33.0116 87.1854 32.8441 87.481 32.647C87.7864 32.4401 88.0426 32.2184 88.2495 31.9819C88.4564 31.7356 88.6141 31.4992 88.7224 31.2725C88.7421 30.8981 88.752 30.4843 88.752 30.0311C88.752 29.568 88.752 29.0458 88.752 28.4645V25.5825ZM95.8017 24.8879C95.8017 24.0504 95.7869 23.3213 95.7574 22.7006C95.7377 22.07 95.7081 21.5281 95.6687 21.0749C95.6391 20.6216 95.5948 20.2423 95.5357 19.9369C95.4864 19.6314 95.4322 19.3752 95.3731 19.1683V19.1092H98.7871V19.1683C98.7083 19.395 98.6393 19.6708 98.5802 19.996C98.5309 20.3211 98.4915 20.7399 98.462 21.2522C98.8265 20.9468 99.2058 20.6463 99.6 20.3507C99.9941 20.0551 100.398 19.794 100.812 19.5674C101.226 19.3408 101.644 19.1585 102.068 19.0205C102.502 18.8826 102.935 18.8136 103.369 18.8136C103.635 18.8136 103.866 18.8284 104.063 18.858C104.26 18.8777 104.438 18.9122 104.595 18.9614C104.753 19.0008 104.896 19.0501 105.024 19.1092C105.152 19.1585 105.275 19.2078 105.393 19.257L104.669 22.0799L104.418 22.0207C104.3 21.5872 104.078 21.2424 103.753 20.9862C103.428 20.7202 102.984 20.5871 102.423 20.5871C102.117 20.5871 101.797 20.6413 101.462 20.7497C101.127 20.8581 100.787 21.0108 100.442 21.2079C100.098 21.3951 99.7527 21.6168 99.4078 21.8729C99.063 22.1193 98.728 22.3804 98.4028 22.6562C98.3831 22.942 98.3733 23.2523 98.3733 23.5873C98.3733 23.9223 98.3733 24.277 98.3733 24.6514V28.4645C98.3733 29.302 98.3831 30.036 98.4028 30.6666C98.4225 31.2873 98.4521 31.8243 98.4915 32.2775C98.5309 32.7308 98.5753 33.1101 98.6245 33.4155C98.6738 33.721 98.728 33.9771 98.7871 34.184V34.2432H95.3731V34.184C95.4322 33.9771 95.4864 33.721 95.5357 33.4155C95.5948 33.1101 95.6391 32.7308 95.6687 32.2775C95.7081 31.8243 95.7377 31.2873 95.7574 30.6666C95.7869 30.036 95.8017 29.302 95.8017 28.4645V24.8879ZM114.305 34.5092C113.212 34.5092 112.187 34.3368 111.231 33.9919C110.275 33.6471 109.443 33.1446 108.734 32.4844C108.024 31.8144 107.463 30.9917 107.049 30.0163C106.645 29.031 106.443 27.9078 106.443 26.6466C106.443 25.5333 106.63 24.5036 107.004 23.5578C107.379 22.6021 107.896 21.7744 108.556 21.0749C109.216 20.3753 109.985 19.8285 110.862 19.4344C111.748 19.0403 112.704 18.8432 113.729 18.8432C114.744 18.8432 115.685 19.0205 116.552 19.3752C117.419 19.7201 118.168 20.2275 118.798 20.8975C119.439 21.5577 119.941 22.3804 120.306 23.3656C120.68 24.3411 120.882 25.4544 120.912 26.7058C119.798 26.686 118.685 26.6713 117.572 26.6614C116.458 26.6516 115.3 26.6466 114.098 26.6466C113.241 26.6466 112.404 26.6516 111.586 26.6614C110.778 26.6713 110.049 26.686 109.399 26.7058C109.458 27.7304 109.615 28.6566 109.872 29.4842C110.138 30.3119 110.497 31.0213 110.95 31.6125C111.413 32.1938 111.97 32.6421 112.62 32.9574C113.281 33.2727 114.024 33.4303 114.852 33.4303C115.424 33.4303 115.961 33.3663 116.463 33.2382C116.975 33.1002 117.438 32.913 117.852 32.6766C118.266 32.4401 118.636 32.1642 118.961 31.8489C119.286 31.5238 119.562 31.174 119.788 30.7996L119.966 30.8883L118.872 33.519C118.34 33.7949 117.705 34.0313 116.966 34.2284C116.227 34.4156 115.34 34.5092 114.305 34.5092ZM112.34 25.4939C113.325 25.4939 114.31 25.4939 115.296 25.4939C116.291 25.484 117.192 25.4643 118 25.4347C117.911 24.5775 117.744 23.809 117.498 23.1292C117.251 22.4493 116.936 21.8729 116.552 21.4C116.167 20.9271 115.714 20.5625 115.192 20.3063C114.67 20.0502 114.093 19.9221 113.463 19.9221C112.891 19.9221 112.364 20.0502 111.882 20.3063C111.409 20.5527 110.995 20.9123 110.64 21.3852C110.285 21.8582 110 22.4395 109.783 23.1292C109.566 23.809 109.438 24.5874 109.399 25.4643C109.842 25.484 110.31 25.4939 110.803 25.4939C111.295 25.4939 111.808 25.4939 112.34 25.4939Z" fill="#1C90F5"/>
<path d="M82.2228 17V14.1208H82.664L82.6988 14.5387C82.7917 14.3839 82.9155 14.264 83.0703 14.1788C83.2251 14.0937 83.3993 14.0511 83.5927 14.0511C83.8211 14.0511 84.0165 14.0976 84.179 14.1905C84.3454 14.2833 84.4731 14.4246 84.5622 14.6142C84.6628 14.4401 84.8002 14.3027 84.9743 14.2021C85.1523 14.1014 85.3439 14.0511 85.549 14.0511C85.8934 14.0511 86.1682 14.1556 86.3733 14.3646C86.5784 14.5697 86.6809 14.887 86.6809 15.3166V17H86.1991V15.3688C86.1991 15.0709 86.1391 14.8464 86.0192 14.6955C85.8992 14.5445 85.727 14.4691 85.5025 14.4691C85.2703 14.4691 85.0769 14.56 84.9221 14.7419C84.7711 14.9199 84.6957 15.1753 84.6957 15.5082V17H84.2081V15.3688C84.2081 15.0709 84.1481 14.8464 84.0281 14.6955C83.9081 14.5445 83.7359 14.4691 83.5115 14.4691C83.2832 14.4691 83.0916 14.56 82.9368 14.7419C82.7859 14.9199 82.7104 15.1753 82.7104 15.5082V17H82.2228ZM88.7099 17.0697C88.4351 17.0697 88.1913 17.0077 87.9785 16.8839C87.7657 16.7562 87.5973 16.5801 87.4735 16.3557C87.3535 16.1312 87.2935 15.8661 87.2935 15.5604C87.2935 15.2585 87.3535 14.9954 87.4735 14.7709C87.5934 14.5426 87.7598 14.3665 87.9727 14.2427C88.1894 14.115 88.439 14.0511 88.7215 14.0511C89.0002 14.0511 89.2401 14.115 89.4413 14.2427C89.6464 14.3665 89.8032 14.531 89.9115 14.7361C90.0199 14.9412 90.074 15.1618 90.074 15.3979C90.074 15.4404 90.0721 15.483 90.0682 15.5256C90.0682 15.5681 90.0682 15.6165 90.0682 15.6707H87.7753C87.7869 15.8913 87.8372 16.0751 87.9263 16.2221C88.0191 16.3653 88.1333 16.4737 88.2687 16.5472C88.4081 16.6207 88.5551 16.6575 88.7099 16.6575C88.9111 16.6575 89.0795 16.6111 89.2149 16.5182C89.3504 16.4253 89.4491 16.2995 89.511 16.1409H89.9928C89.9154 16.4079 89.7664 16.6304 89.5458 16.8084C89.3291 16.9826 89.0505 17.0697 88.7099 17.0697ZM88.7099 14.4633C88.4777 14.4633 88.2707 14.5349 88.0888 14.6781C87.9108 14.8174 87.8082 15.0225 87.7811 15.2934H89.5922C89.5806 15.0341 89.4916 14.8309 89.3252 14.6839C89.1588 14.5368 88.9537 14.4633 88.7099 14.4633ZM92.0264 17.0697C91.7401 17.0697 91.4885 17.0039 91.2718 16.8723C91.059 16.7407 90.8925 16.5608 90.7726 16.3324C90.6565 16.1041 90.5984 15.8448 90.5984 15.5546C90.5984 15.2643 90.6584 15.007 90.7784 14.7825C90.8984 14.5542 91.0648 14.3762 91.2776 14.2485C91.4904 14.1169 91.742 14.0511 92.0322 14.0511C92.2683 14.0511 92.4773 14.0995 92.6592 14.1963C92.841 14.293 92.9823 14.4284 93.0829 14.6026V12.8205H93.5705V17H93.1294L93.0829 16.524C92.99 16.6633 92.8565 16.7891 92.6824 16.9013C92.5082 17.0135 92.2896 17.0697 92.0264 17.0697ZM92.0787 16.6459C92.2722 16.6459 92.4424 16.6014 92.5895 16.5124C92.7404 16.4195 92.8565 16.2918 92.9378 16.1293C93.0229 15.9667 93.0655 15.7771 93.0655 15.5604C93.0655 15.3437 93.0229 15.1541 92.9378 14.9915C92.8565 14.829 92.7404 14.7032 92.5895 14.6142C92.4424 14.5213 92.2722 14.4749 92.0787 14.4749C91.889 14.4749 91.7188 14.5213 91.5678 14.6142C91.4208 14.7032 91.3047 14.829 91.2196 14.9915C91.1383 15.1541 91.0977 15.3437 91.0977 15.5604C91.0977 15.7771 91.1383 15.9667 91.2196 16.1293C91.3047 16.2918 91.4208 16.4195 91.5678 16.5124C91.7188 16.6014 91.889 16.6459 92.0787 16.6459ZM94.6614 13.4823C94.5647 13.4823 94.4834 13.4513 94.4176 13.3894C94.3557 13.3236 94.3247 13.2423 94.3247 13.1456C94.3247 13.0527 94.3557 12.9753 94.4176 12.9134C94.4834 12.8515 94.5647 12.8205 94.6614 12.8205C94.7543 12.8205 94.8336 12.8515 94.8994 12.9134C94.9652 12.9753 94.9981 13.0527 94.9981 13.1456C94.9981 13.2423 94.9652 13.3236 94.8994 13.3894C94.8336 13.4513 94.7543 13.4823 94.6614 13.4823ZM94.4176 17V14.1208H94.9052V17H94.4176ZM97.0777 17.0697C96.803 17.0697 96.5553 17.0077 96.3347 16.8839C96.118 16.7562 95.9458 16.5801 95.8181 16.3557C95.6943 16.1273 95.6323 15.8622 95.6323 15.5604C95.6323 15.2585 95.6943 14.9954 95.8181 14.7709C95.9458 14.5426 96.118 14.3665 96.3347 14.2427C96.5553 14.115 96.803 14.0511 97.0777 14.0511C97.4183 14.0511 97.7047 14.1401 97.9369 14.3182C98.1729 14.4962 98.3219 14.7342 98.3838 15.0322H97.8846C97.8459 14.8541 97.7511 14.7168 97.6002 14.62C97.4493 14.5194 97.2732 14.4691 97.0719 14.4691C96.9094 14.4691 96.7565 14.5097 96.6134 14.591C96.4702 14.6723 96.3541 14.7942 96.2651 14.9567C96.1761 15.1192 96.1316 15.3205 96.1316 15.5604C96.1316 15.8003 96.1761 16.0016 96.2651 16.1641C96.3541 16.3266 96.4702 16.4505 96.6134 16.5356C96.7565 16.6169 96.9094 16.6575 97.0719 16.6575C97.2732 16.6575 97.4493 16.6091 97.6002 16.5124C97.7511 16.4118 97.8459 16.2705 97.8846 16.0886H98.3838C98.3258 16.3789 98.1787 16.6149 97.9427 16.7968C97.7066 16.9787 97.4183 17.0697 97.0777 17.0697ZM100.023 17.0697C99.7827 17.0697 99.5834 17.029 99.4247 16.9478C99.2661 16.8665 99.148 16.7581 99.0706 16.6227C98.9932 16.4872 98.9545 16.3402 98.9545 16.1815C98.9545 15.8874 99.0668 15.661 99.2912 15.5023C99.5157 15.3437 99.8214 15.2643 100.208 15.2643H100.986V15.2295C100.986 14.978 100.92 14.7884 100.789 14.6606C100.657 14.5291 100.481 14.4633 100.261 14.4633C100.071 14.4633 99.9065 14.5117 99.7672 14.6084C99.6318 14.7013 99.5466 14.8387 99.5118 15.0205H99.0126C99.0319 14.8116 99.1016 14.6355 99.2215 14.4923C99.3454 14.3491 99.4982 14.2408 99.6801 14.1672C99.862 14.0898 100.056 14.0511 100.261 14.0511C100.663 14.0511 100.965 14.1595 101.166 14.3762C101.371 14.5891 101.474 14.8735 101.474 15.2295V17H101.038L101.009 16.4834C100.928 16.6459 100.808 16.7852 100.65 16.9013C100.495 17.0135 100.286 17.0697 100.023 17.0697ZM100.098 16.6575C100.284 16.6575 100.443 16.6091 100.574 16.5124C100.71 16.4156 100.812 16.2899 100.882 16.1351C100.951 15.9803 100.986 15.8177 100.986 15.6475V15.6417H100.249C99.9626 15.6417 99.7595 15.692 99.6395 15.7926C99.5234 15.8893 99.4654 16.0112 99.4654 16.1583C99.4654 16.3092 99.5195 16.4311 99.6279 16.524C99.7401 16.613 99.8968 16.6575 100.098 16.6575ZM102.205 17V12.8205H102.693V17H102.205ZM106.352 17.0697C106.077 17.0697 105.829 17.0077 105.609 16.8839C105.392 16.7562 105.22 16.5801 105.092 16.3557C104.968 16.1273 104.906 15.8622 104.906 15.5604C104.906 15.2585 104.968 14.9954 105.092 14.7709C105.22 14.5426 105.392 14.3665 105.609 14.2427C105.829 14.115 106.077 14.0511 106.352 14.0511C106.692 14.0511 106.979 14.1401 107.211 14.3182C107.447 14.4962 107.596 14.7342 107.658 15.0322H107.159C107.12 14.8541 107.025 14.7168 106.874 14.62C106.723 14.5194 106.547 14.4691 106.346 14.4691C106.184 14.4691 106.031 14.5097 105.888 14.591C105.744 14.6723 105.628 14.7942 105.539 14.9567C105.45 15.1192 105.406 15.3205 105.406 15.5604C105.406 15.8003 105.45 16.0016 105.539 16.1641C105.628 16.3266 105.744 16.4505 105.888 16.5356C106.031 16.6169 106.184 16.6575 106.346 16.6575C106.547 16.6575 106.723 16.6091 106.874 16.5124C107.025 16.4118 107.12 16.2705 107.159 16.0886H107.658C107.6 16.3789 107.453 16.6149 107.217 16.7968C106.981 16.9787 106.692 17.0697 106.352 17.0697ZM109.633 17.0697C109.359 17.0697 109.115 17.0077 108.902 16.8839C108.689 16.7562 108.521 16.5801 108.397 16.3557C108.277 16.1312 108.217 15.8661 108.217 15.5604C108.217 15.2585 108.277 14.9954 108.397 14.7709C108.517 14.5426 108.683 14.3665 108.896 14.2427C109.113 14.115 109.363 14.0511 109.645 14.0511C109.924 14.0511 110.164 14.115 110.365 14.2427C110.57 14.3665 110.727 14.531 110.835 14.7361C110.943 14.9412 110.998 15.1618 110.998 15.3979C110.998 15.4404 110.996 15.483 110.992 15.5256C110.992 15.5681 110.992 15.6165 110.992 15.6707H108.699C108.71 15.8913 108.761 16.0751 108.85 16.2221C108.943 16.3653 109.057 16.4737 109.192 16.5472C109.332 16.6207 109.479 16.6575 109.633 16.6575C109.835 16.6575 110.003 16.6111 110.138 16.5182C110.274 16.4253 110.373 16.2995 110.435 16.1409H110.916C110.839 16.4079 110.69 16.6304 110.469 16.8084C110.253 16.9826 109.974 17.0697 109.633 17.0697ZM109.633 14.4633C109.401 14.4633 109.194 14.5349 109.012 14.6781C108.834 14.8174 108.732 15.0225 108.705 15.2934H110.516C110.504 15.0341 110.415 14.8309 110.249 14.6839C110.082 14.5368 109.877 14.4633 109.633 14.4633ZM111.644 17V14.1208H112.085L112.114 14.6374C112.207 14.4555 112.34 14.3124 112.515 14.2079C112.689 14.1034 112.886 14.0511 113.107 14.0511C113.447 14.0511 113.718 14.1556 113.919 14.3646C114.124 14.5697 114.227 14.887 114.227 15.3166V17H113.739V15.3688C113.739 14.769 113.492 14.4691 112.996 14.4691C112.749 14.4691 112.542 14.56 112.375 14.7419C112.213 14.9199 112.131 15.1753 112.131 15.5082V17H111.644ZM116.104 17C115.84 17 115.633 16.9361 115.482 16.8084C115.332 16.6807 115.256 16.4505 115.256 16.1177V14.5329H114.757V14.1208H115.256L115.32 13.43H115.744V14.1208H116.591V14.5329H115.744V16.1177C115.744 16.2995 115.78 16.4234 115.854 16.4892C115.927 16.5511 116.057 16.5821 116.243 16.5821H116.545V17H116.104ZM118.426 17.0697C118.151 17.0697 117.907 17.0077 117.694 16.8839C117.482 16.7562 117.313 16.5801 117.189 16.3557C117.069 16.1312 117.009 15.8661 117.009 15.5604C117.009 15.2585 117.069 14.9954 117.189 14.7709C117.309 14.5426 117.476 14.3665 117.689 14.2427C117.905 14.115 118.155 14.0511 118.437 14.0511C118.716 14.0511 118.956 14.115 119.157 14.2427C119.362 14.3665 119.519 14.531 119.627 14.7361C119.736 14.9412 119.79 15.1618 119.79 15.3979C119.79 15.4404 119.788 15.483 119.784 15.5256C119.784 15.5681 119.784 15.6165 119.784 15.6707H117.491C117.503 15.8913 117.553 16.0751 117.642 16.2221C117.735 16.3653 117.849 16.4737 117.985 16.5472C118.124 16.6207 118.271 16.6575 118.426 16.6575C118.627 16.6575 118.795 16.6111 118.931 16.5182C119.066 16.4253 119.165 16.2995 119.227 16.1409H119.709C119.631 16.4079 119.482 16.6304 119.262 16.8084C119.045 16.9826 118.766 17.0697 118.426 17.0697ZM118.426 14.4633C118.194 14.4633 117.987 14.5349 117.805 14.6781C117.627 14.8174 117.524 15.0225 117.497 15.2934H119.308C119.297 15.0341 119.207 14.8309 119.041 14.6839C118.875 14.5368 118.67 14.4633 118.426 14.4633ZM120.436 17V14.1208H120.877L120.918 14.6723C121.007 14.4826 121.142 14.3317 121.324 14.2195C121.506 14.1072 121.731 14.0511 121.998 14.0511V14.562H121.864C121.694 14.562 121.537 14.5929 121.394 14.6548C121.251 14.7129 121.137 14.8135 121.052 14.9567C120.966 15.0999 120.924 15.2972 120.924 15.5488V17H120.436Z" fill="#1C90F5"/>
</g>
<defs>
<clipPath id="clip0_218_706">
<rect width="128" height="41.8892" fill="white"/>
</clipPath>
</defs>
</svg>
