<svg width="182" height="62" viewBox="0 0 182 62" fill="none" xmlns="http://www.w3.org/2000/svg">
<g clip-path="url(#clip0_143_189)">
<path d="M69.4 19.85C68.41 14.15 64.4 9.43999 58.95 7.56999C55.56 6.39999 51.71 6.34999 47.83 7.41999C43.52 8.59999 39.22 11.11 35.04 14.85C30.86 11.11 26.56 8.60999 22.25 7.41999C18.37 6.34999 14.52 6.39999 11.13 7.56999C5.69 9.43999 1.69 14.15 0.700002 19.85C-0.519998 26.84 2.73 34.02 9.62 39.55C14.37 43.37 18.86 46.22 22.83 48.75C27.48 51.71 35.25 57.6 35.25 57.6C38.61 54.26 42.63 51.71 47.28 48.75C51.24 46.23 55.73 43.37 60.49 39.55C67.37 34.02 70.62 26.84 69.4 19.85ZM59.59 38.71C54.86 42.51 50.38 45.36 46.43 47.87C42.07 50.65 39.33 52.23 36.08 55.28C39.53 41.46 48.08 36.27 54.14 31.99C56.04 30.64 57.69 29.48 58.75 28.36C60.67 26.35 61.7 24.23 62.2 23.21L62.29 23.02C62.74 22.1 62.44 21.52 62.05 21.3C61.58 21.03 60.97 21.22 60.63 21.73C60.06 22.6 58.42 25.07 57.96 25.7C57.88 25.81 57.77 25.9 57.68 25.84C57.59 25.78 57.54 25.58 57.7 25.34C58.19 24.63 60.22 21.52 60.65 20.64C61.1 19.72 60.8 19.14 60.41 18.92C59.94 18.65 59.33 18.84 58.99 19.35C58.43 20.21 56.8 22.66 56.32 23.32C56.21 23.47 56.09 23.53 56.01 23.48C55.92 23.42 55.89 23.21 56.07 22.95C56.61 22.17 58.56 19.18 59.01 18.27C59.46 17.35 59.16 16.77 58.77 16.55C58.3 16.28 57.69 16.47 57.35 16.98L57.26 17.12C56.68 18.01 55.14 20.36 54.69 20.94C54.54 21.13 54.4 21.12 54.31 21.07C54.21 21 54.17 20.83 54.31 20.62L54.45 20.39C55.01 19.49 56.33 17.37 56.73 16.56C57.18 15.64 56.88 15.06 56.49 14.84C56.02 14.57 55.41 14.76 55.07 15.27L55.05 15.3C54.53 16.09 53.31 17.95 52.4 19.24C51.85 20.02 51.47 20.24 51.31 20.19C51.26 20.17 50.77 19.95 50.74 17.56C50.72 16.34 50.18 16.13 49.95 16.1C49.35 16.02 48.75 16.72 48.39 17.93C46.22 25.23 38.35 31.8 29.68 33.55C22.33 35.03 15.84 32.87 11.39 27.45C9.95 25.7 8.76 23.7 8.32 22.79C8.09 22.32 8.09 21.93 8.34 21.79C8.53 21.68 8.83 21.75 9.02 22.05C9.5 22.78 11.21 25.36 11.71 26.04C12.04 26.5 12.48 26.5 12.75 26.31C13.08 26.08 13.21 25.54 12.87 25.05C12.39 24.35 10.38 21.28 9.96 20.42C9.73 19.95 9.73 19.56 9.97 19.42C10.16 19.31 10.46 19.38 10.65 19.68C11.15 20.44 12.84 22.98 13.34 23.67C13.68 24.15 14.14 24.15 14.41 23.96C14.73 23.74 14.86 23.2 14.48 22.66C13.91 21.83 12 18.89 11.58 18.05C11.35 17.58 11.36 17.19 11.6 17.05C11.79 16.94 12.09 17.01 12.28 17.31L12.4 17.49C13.03 18.46 14.52 20.73 14.98 21.31C15.32 21.75 15.81 21.76 16.11 21.55C16.42 21.33 16.57 20.85 16.26 20.35L16.11 20.11C15.55 19.22 14.24 17.12 13.86 16.34C13.63 15.87 13.63 15.48 13.87 15.34C14.06 15.23 14.36 15.3 14.56 15.6C15.08 16.4 16.31 18.27 17.24 19.58C17.66 20.17 18.3 20.94 18.95 20.74C19.58 20.55 19.88 19.54 19.91 17.59C19.92 16.96 20.14 16.66 20.34 16.65C20.6 16.64 21.02 17.06 21.17 18.07C21.56 20.82 21.87 21.99 23.24 22.46C25.96 23.4 35.05 16.28 35.05 16.28C42.9 9.18 50.93 6.09999 58.04 8.53999C63.3 10.35 67.35 14.06 68.31 19.57C69.49 26.33 66.31 33.31 59.59 38.71Z" fill="#1C90F5"/>
<path d="M106.022 22.7971L105.826 22.8843C104.692 21.8381 103.326 21.0025 101.728 20.3777C100.144 19.7528 98.4 19.4404 96.4964 19.4404C94.6654 19.4404 92.9871 19.731 91.4613 20.3123C89.9355 20.879 88.6204 21.7073 87.516 22.7971C86.4261 23.887 85.576 25.2239 84.9657 26.8078C84.3554 28.3917 84.0503 30.1936 84.0503 32.2135C84.0503 34.4368 84.3409 36.5148 84.9221 38.4474C85.5034 40.3656 86.368 42.0294 87.516 43.439C88.664 44.8485 90.0953 45.9602 91.81 46.7739C93.5392 47.5731 95.5518 47.9728 97.8478 47.9728C98.6761 47.9728 99.5044 47.8856 100.333 47.7112C101.161 47.5368 101.953 47.2825 102.709 46.9483C103.479 46.5995 104.198 46.1854 104.866 45.7059C105.549 45.2118 106.167 44.6523 106.719 44.0275L106.959 44.1801L105.215 48.6267C104.125 49.0481 102.919 49.3678 101.597 49.5857C100.289 49.8182 98.9667 49.9345 97.6298 49.9345C94.9415 49.9345 92.4785 49.5494 90.2406 48.7793C88.0173 47.9946 86.0992 46.8902 84.4862 45.4661C82.8877 44.042 81.638 42.3346 80.7371 40.3438C79.8507 38.3385 79.4075 36.1152 79.4075 33.6739C79.4075 32.2934 79.5819 30.9347 79.9306 29.5978C80.2939 28.2609 80.817 26.9894 81.5 25.7833C82.183 24.5772 83.0258 23.4729 84.0285 22.4702C85.0311 21.453 86.1718 20.5738 87.4506 19.8327C88.7439 19.0916 90.1607 18.5177 91.701 18.1108C93.2559 17.6894 94.9343 17.4787 96.7361 17.4787C99.5407 17.4787 102.142 17.9073 104.539 18.7647L106.022 22.7971ZM109.444 42.8287C109.444 41.6807 109.676 40.6853 110.141 39.8425C110.621 38.9996 111.253 38.2803 112.038 37.6845C112.822 37.0888 113.716 36.6092 114.719 36.2459C115.721 35.8681 116.76 35.5775 117.836 35.3741C118.911 35.1561 119.972 35.0108 121.018 34.9381C122.064 34.8509 123.023 34.8001 123.895 34.7855V33.6739C123.895 32.7148 123.772 31.8865 123.525 31.189C123.278 30.4915 122.929 29.9175 122.478 29.467C122.028 29.002 121.483 28.6606 120.844 28.4426C120.219 28.2101 119.529 28.0938 118.773 28.0938C118.25 28.0938 117.734 28.1374 117.225 28.2246C116.717 28.3118 116.186 28.4571 115.634 28.6606C115.097 28.864 114.523 29.1401 113.912 29.4888C113.316 29.8376 112.67 30.2808 111.972 30.8185L111.754 30.6877L113.237 27.6143C113.716 27.3963 114.188 27.222 114.653 27.0912C115.118 26.9459 115.591 26.8296 116.07 26.7424C116.55 26.6552 117.036 26.5971 117.531 26.568C118.039 26.5244 118.57 26.5026 119.122 26.5026C120.648 26.5026 121.948 26.6916 123.023 27.0694C124.113 27.4327 125 27.9413 125.683 28.5952C126.38 29.2345 126.889 29.9902 127.208 30.8621C127.528 31.7194 127.688 32.6422 127.688 33.6303V40.7361C127.688 41.9713 127.703 43.0539 127.732 43.9839C127.775 44.8994 127.819 45.6913 127.862 46.3598C127.92 47.0282 127.986 47.5877 128.059 48.0382C128.146 48.4886 128.233 48.8664 128.32 49.1716V49.2588H123.503V49.1716C123.576 48.9391 123.626 48.6775 123.656 48.3869C123.699 48.0963 123.735 47.7475 123.765 47.3406C123.459 47.6022 123.096 47.871 122.675 48.1471C122.268 48.4232 121.796 48.6775 121.258 48.91C120.735 49.128 120.146 49.3024 119.492 49.4332C118.853 49.5785 118.148 49.6511 117.378 49.6511C114.85 49.6511 112.895 49.0626 111.515 47.8856C110.134 46.694 109.444 45.0084 109.444 42.8287ZM123.895 36.4857C122.573 36.5002 121.301 36.5802 120.081 36.7255C118.86 36.8563 117.778 37.1396 116.833 37.5756C115.903 38.0115 115.155 38.6364 114.588 39.4501C114.036 40.2493 113.76 41.3174 113.76 42.6543C113.76 44.369 114.188 45.6768 115.046 46.5777C115.903 47.4787 117.087 47.9292 118.599 47.9292C119.296 47.9292 119.928 47.8347 120.495 47.6458C121.076 47.4424 121.585 47.1953 122.021 46.9047C122.471 46.5995 122.849 46.2726 123.154 45.9238C123.459 45.5606 123.692 45.2118 123.852 44.8776C123.881 44.3254 123.895 43.7151 123.895 43.0466C123.895 42.3636 123.895 41.5935 123.895 40.7361V36.4857ZM134.293 35.4612C134.293 34.2261 134.271 33.1508 134.227 32.2353C134.198 31.3053 134.154 30.506 134.096 29.8376C134.053 29.1692 133.987 28.6097 133.9 28.1592C133.827 27.7088 133.748 27.3309 133.66 27.0258V26.9386H138.696V27.0258C138.579 27.36 138.478 27.7669 138.39 28.2464C138.318 28.7259 138.26 29.3435 138.216 30.0992C138.754 29.6487 139.313 29.2055 139.894 28.7695C140.476 28.3336 141.071 27.9485 141.682 27.6143C142.292 27.2801 142.91 27.0112 143.534 26.8078C144.174 26.6044 144.813 26.5026 145.453 26.5026C145.845 26.5026 146.186 26.5244 146.477 26.568C146.768 26.5971 147.029 26.648 147.262 26.7206C147.494 26.7787 147.705 26.8514 147.894 26.9386C148.083 27.0112 148.264 27.0839 148.439 27.1566L147.371 31.3198L147 31.2326C146.826 30.5932 146.499 30.0846 146.019 29.7068C145.54 29.3145 144.886 29.1183 144.058 29.1183C143.607 29.1183 143.135 29.1982 142.641 29.3581C142.147 29.5179 141.645 29.7431 141.137 30.0338C140.628 30.3099 140.12 30.6368 139.611 31.0146C139.102 31.3779 138.608 31.763 138.129 32.1699C138.1 32.5913 138.085 33.049 138.085 33.5431C138.085 34.0372 138.085 34.5603 138.085 35.1125V40.7361C138.085 41.9713 138.1 43.0539 138.129 43.9839C138.158 44.8994 138.201 45.6913 138.26 46.3598C138.318 47.0282 138.383 47.5877 138.456 48.0382C138.528 48.4886 138.608 48.8664 138.696 49.1716V49.2588H133.66V49.1716C133.748 48.8664 133.827 48.4886 133.9 48.0382C133.987 47.5877 134.053 47.0282 134.096 46.3598C134.154 45.6913 134.198 44.8994 134.227 43.9839C134.271 43.0539 134.293 41.9713 134.293 40.7361V35.4612ZM161.582 49.6511C159.969 49.6511 158.458 49.3968 157.049 48.8882C155.639 48.3796 154.411 47.6385 153.365 46.6649C152.319 45.6768 151.49 44.4634 150.88 43.0248C150.284 41.5717 149.986 39.9151 149.986 38.0551C149.986 36.413 150.262 34.8945 150.815 33.4995C151.367 32.09 152.13 30.8693 153.103 29.8376C154.077 28.8059 155.21 27.9994 156.504 27.4181C157.812 26.8369 159.221 26.5462 160.732 26.5462C162.229 26.5462 163.617 26.8078 164.896 27.3309C166.174 27.8395 167.279 28.5879 168.209 29.576C169.153 30.5496 169.894 31.763 170.432 33.2161C170.984 34.6548 171.282 36.2968 171.326 38.1423C169.684 38.1132 168.042 38.0914 166.4 38.0769C164.758 38.0624 163.05 38.0551 161.277 38.0551C160.013 38.0551 158.778 38.0624 157.572 38.0769C156.38 38.0914 155.305 38.1132 154.346 38.1423C154.433 39.6535 154.665 41.0195 155.043 42.2401C155.436 43.4608 155.966 44.507 156.634 45.3789C157.317 46.2363 158.138 46.8974 159.098 47.3624C160.071 47.8274 161.168 48.06 162.389 48.06C163.232 48.06 164.024 47.9655 164.765 47.7766C165.52 47.5731 166.203 47.2971 166.814 46.9483C167.424 46.5995 167.969 46.1927 168.449 45.7277C168.928 45.2481 169.335 44.7323 169.669 44.1801L169.931 44.3109L168.318 48.1907C167.533 48.5976 166.596 48.9464 165.506 49.237C164.416 49.5131 163.108 49.6511 161.582 49.6511ZM158.683 36.3549C160.137 36.3549 161.59 36.3549 163.043 36.3549C164.511 36.3404 165.84 36.3113 167.032 36.2677C166.901 35.0035 166.654 33.8701 166.291 32.8674C165.927 31.8647 165.462 31.0146 164.896 30.3171C164.329 29.6196 163.66 29.082 162.89 28.7042C162.12 28.3263 161.27 28.1374 160.34 28.1374C159.497 28.1374 158.72 28.3263 158.008 28.7042C157.31 29.0674 156.7 29.5978 156.177 30.2953C155.654 30.9928 155.232 31.8502 154.913 32.8674C154.593 33.8701 154.404 35.018 154.346 36.3113C155 36.3404 155.69 36.3549 156.417 36.3549C157.143 36.3549 157.899 36.3549 158.683 36.3549Z" fill="#1C90F5"/>
<path d="M115.582 24V19.8172H116.223L116.273 20.4244C116.408 20.1995 116.588 20.0253 116.813 19.9016C117.038 19.7779 117.291 19.7161 117.572 19.7161C117.904 19.7161 118.188 19.7835 118.424 19.9184C118.666 20.0534 118.851 20.2586 118.98 20.534C119.127 20.2811 119.326 20.0815 119.579 19.9353C119.838 19.7891 120.116 19.7161 120.414 19.7161C120.914 19.7161 121.313 19.8678 121.611 20.1714C121.909 20.4694 122.058 20.9304 122.058 21.5544V24H121.358V21.6303C121.358 21.1974 121.271 20.8714 121.097 20.6521C120.923 20.4329 120.673 20.3232 120.347 20.3232C120.009 20.3232 119.728 20.4553 119.503 20.7196C119.284 20.9782 119.174 21.3492 119.174 21.8327V24H118.466V21.6303C118.466 21.1974 118.379 20.8714 118.205 20.6521C118.03 20.4329 117.78 20.3232 117.454 20.3232C117.122 20.3232 116.844 20.4553 116.619 20.7196C116.4 20.9782 116.29 21.3492 116.29 21.8327V24H115.582ZM125.006 24.1012C124.607 24.1012 124.253 24.0112 123.943 23.8313C123.634 23.6458 123.39 23.39 123.21 23.0639C123.035 22.7379 122.948 22.3528 122.948 21.9086C122.948 21.4701 123.035 21.0878 123.21 20.7617C123.384 20.43 123.626 20.1742 123.935 19.9943C124.25 19.8088 124.612 19.7161 125.023 19.7161C125.428 19.7161 125.776 19.8088 126.069 19.9943C126.367 20.1742 126.594 20.4132 126.752 20.7111C126.909 21.0091 126.988 21.3296 126.988 21.6725C126.988 21.7343 126.985 21.7962 126.979 21.858C126.979 21.9199 126.979 21.9901 126.979 22.0688H123.648C123.665 22.3893 123.738 22.6563 123.868 22.87C124.002 23.078 124.168 23.2354 124.365 23.3422C124.567 23.449 124.781 23.5025 125.006 23.5025C125.298 23.5025 125.543 23.435 125.74 23.3001C125.936 23.1651 126.08 22.9824 126.17 22.7519H126.87C126.757 23.1398 126.541 23.4631 126.22 23.7217C125.905 23.9747 125.501 24.1012 125.006 24.1012ZM125.006 20.3148C124.669 20.3148 124.368 20.4188 124.104 20.6268C123.845 20.8292 123.696 21.1272 123.657 21.5207H126.288C126.271 21.144 126.142 20.8489 125.9 20.6352C125.658 20.4216 125.36 20.3148 125.006 20.3148ZM129.824 24.1012C129.408 24.1012 129.043 24.0056 128.728 23.8145C128.419 23.6233 128.177 23.3619 128.003 23.0302C127.834 22.6985 127.75 22.3218 127.75 21.9002C127.75 21.4785 127.837 21.1047 128.011 20.7786C128.185 20.4469 128.427 20.1883 128.736 20.0028C129.045 19.8116 129.411 19.7161 129.832 19.7161C130.175 19.7161 130.479 19.7863 130.743 19.9269C131.007 20.0674 131.213 20.2642 131.359 20.5172V17.9283H132.067V24H131.426L131.359 23.3085C131.224 23.5109 131.03 23.6936 130.777 23.8566C130.524 24.0197 130.206 24.1012 129.824 24.1012ZM129.9 23.4856C130.181 23.4856 130.428 23.4209 130.642 23.2916C130.861 23.1567 131.03 22.9712 131.148 22.7351C131.272 22.4989 131.334 22.2235 131.334 21.9086C131.334 21.5938 131.272 21.3183 131.148 21.0822C131.03 20.8461 130.861 20.6634 130.642 20.534C130.428 20.3991 130.181 20.3317 129.9 20.3317C129.624 20.3317 129.377 20.3991 129.158 20.534C128.944 20.6634 128.776 20.8461 128.652 21.0822C128.534 21.3183 128.475 21.5938 128.475 21.9086C128.475 22.2235 128.534 22.4989 128.652 22.7351C128.776 22.9712 128.944 23.1567 129.158 23.2916C129.377 23.4209 129.624 23.4856 129.9 23.4856ZM133.652 18.8896C133.511 18.8896 133.393 18.8446 133.298 18.7547C133.208 18.6591 133.163 18.5411 133.163 18.4005C133.163 18.2656 133.208 18.1531 133.298 18.0632C133.393 17.9732 133.511 17.9283 133.652 17.9283C133.787 17.9283 133.902 17.9732 133.998 18.0632C134.093 18.1531 134.141 18.2656 134.141 18.4005C134.141 18.5411 134.093 18.6591 133.998 18.7547C133.902 18.8446 133.787 18.8896 133.652 18.8896ZM133.298 24V19.8172H134.006V24H133.298ZM137.162 24.1012C136.763 24.1012 136.403 24.0112 136.083 23.8313C135.768 23.6458 135.518 23.39 135.332 23.0639C135.152 22.7322 135.062 22.3471 135.062 21.9086C135.062 21.4701 135.152 21.0878 135.332 20.7617C135.518 20.43 135.768 20.1742 136.083 19.9943C136.403 19.8088 136.763 19.7161 137.162 19.7161C137.657 19.7161 138.073 19.8454 138.41 20.104C138.753 20.3626 138.97 20.7083 139.06 21.1412H138.334C138.278 20.8826 138.141 20.683 137.921 20.5425C137.702 20.3963 137.446 20.3232 137.154 20.3232C136.918 20.3232 136.696 20.3823 136.488 20.5003C136.28 20.6184 136.111 20.7955 135.982 21.0316C135.852 21.2677 135.788 21.5601 135.788 21.9086C135.788 22.2572 135.852 22.5495 135.982 22.7857C136.111 23.0218 136.28 23.2017 136.488 23.3254C136.696 23.4434 136.918 23.5025 137.154 23.5025C137.446 23.5025 137.702 23.4322 137.921 23.2916C138.141 23.1455 138.278 22.9403 138.334 22.676H139.06C138.975 23.0977 138.762 23.4406 138.419 23.7048C138.076 23.9691 137.657 24.1012 137.162 24.1012ZM141.44 24.1012C141.092 24.1012 140.802 24.0422 140.572 23.9241C140.341 23.806 140.17 23.6486 140.057 23.4519C139.945 23.2551 139.889 23.0415 139.889 22.811C139.889 22.3837 140.052 22.0548 140.378 21.8243C140.704 21.5938 141.148 21.4785 141.71 21.4785H142.84V21.4279C142.84 21.0625 142.745 20.787 142.554 20.6015C142.362 20.4104 142.107 20.3148 141.786 20.3148C141.511 20.3148 141.272 20.3851 141.069 20.5256C140.873 20.6605 140.749 20.8601 140.698 21.1244H139.973C140.001 20.8208 140.102 20.565 140.277 20.357C140.457 20.1489 140.679 19.9915 140.943 19.8847C141.207 19.7723 141.488 19.7161 141.786 19.7161C142.371 19.7161 142.809 19.8735 143.102 20.1883C143.4 20.4975 143.549 20.9107 143.549 21.4279V24H142.916L142.874 23.2495C142.756 23.4856 142.582 23.688 142.351 23.8566C142.126 24.0197 141.823 24.1012 141.44 24.1012ZM141.55 23.5025C141.82 23.5025 142.05 23.4322 142.242 23.2916C142.438 23.1511 142.587 22.9684 142.689 22.7435C142.79 22.5186 142.84 22.2825 142.84 22.0351V22.0267H141.769C141.353 22.0267 141.058 22.0998 140.884 22.2459C140.715 22.3865 140.631 22.5636 140.631 22.7772C140.631 22.9965 140.71 23.1736 140.867 23.3085C141.03 23.4378 141.258 23.5025 141.55 23.5025ZM144.611 24V17.9283H145.32V24H144.611ZM150.635 24.1012C150.236 24.1012 149.876 24.0112 149.556 23.8313C149.241 23.6458 148.991 23.39 148.805 23.0639C148.625 22.7322 148.535 22.3471 148.535 21.9086C148.535 21.4701 148.625 21.0878 148.805 20.7617C148.991 20.43 149.241 20.1742 149.556 19.9943C149.876 19.8088 150.236 19.7161 150.635 19.7161C151.13 19.7161 151.546 19.8454 151.883 20.104C152.226 20.3626 152.443 20.7083 152.533 21.1412H151.807C151.751 20.8826 151.614 20.683 151.394 20.5425C151.175 20.3963 150.919 20.3232 150.627 20.3232C150.391 20.3232 150.169 20.3823 149.961 20.5003C149.753 20.6184 149.584 20.7955 149.455 21.0316C149.325 21.2677 149.261 21.5601 149.261 21.9086C149.261 22.2572 149.325 22.5495 149.455 22.7857C149.584 23.0218 149.753 23.2017 149.961 23.3254C150.169 23.4434 150.391 23.5025 150.627 23.5025C150.919 23.5025 151.175 23.4322 151.394 23.2916C151.614 23.1455 151.751 22.9403 151.807 22.676H152.533C152.448 23.0977 152.235 23.4406 151.892 23.7048C151.549 23.9691 151.13 24.1012 150.635 24.1012ZM155.403 24.1012C155.003 24.1012 154.649 24.0112 154.34 23.8313C154.031 23.6458 153.786 23.39 153.606 23.0639C153.432 22.7379 153.345 22.3528 153.345 21.9086C153.345 21.4701 153.432 21.0878 153.606 20.7617C153.781 20.43 154.022 20.1742 154.332 19.9943C154.646 19.8088 155.009 19.7161 155.419 19.7161C155.824 19.7161 156.173 19.8088 156.465 19.9943C156.763 20.1742 156.991 20.4132 157.148 20.7111C157.306 21.0091 157.384 21.3296 157.384 21.6725C157.384 21.7343 157.381 21.7962 157.376 21.858C157.376 21.9199 157.376 21.9901 157.376 22.0688H154.045C154.062 22.3893 154.135 22.6563 154.264 22.87C154.399 23.078 154.565 23.2354 154.762 23.3422C154.964 23.449 155.178 23.5025 155.403 23.5025C155.695 23.5025 155.939 23.435 156.136 23.3001C156.333 23.1651 156.476 22.9824 156.566 22.7519H157.266C157.154 23.1398 156.937 23.4631 156.617 23.7217C156.302 23.9747 155.897 24.1012 155.403 24.1012ZM155.403 20.3148C155.065 20.3148 154.764 20.4188 154.5 20.6268C154.242 20.8292 154.093 21.1272 154.053 21.5207H156.684C156.667 21.144 156.538 20.8489 156.296 20.6352C156.055 20.4216 155.757 20.3148 155.403 20.3148ZM158.323 24V19.8172H158.964L159.006 20.5678C159.141 20.3035 159.335 20.0955 159.588 19.9437C159.841 19.7919 160.128 19.7161 160.448 19.7161C160.943 19.7161 161.337 19.8678 161.629 20.1714C161.927 20.4694 162.076 20.9304 162.076 21.5544V24H161.367V21.6303C161.367 20.7589 161.008 20.3232 160.288 20.3232C159.928 20.3232 159.627 20.4553 159.386 20.7196C159.15 20.9782 159.032 21.3492 159.032 21.8327V24H158.323ZM164.802 24C164.42 24 164.119 23.9072 163.9 23.7217C163.68 23.5362 163.571 23.2017 163.571 22.7182V20.416H162.846V19.8172H163.571L163.664 18.8137H164.279V19.8172H165.51V20.416H164.279V22.7182C164.279 22.9824 164.333 23.1623 164.439 23.2579C164.546 23.3479 164.734 23.3928 165.004 23.3928H165.443V24H164.802ZM168.176 24.1012C167.776 24.1012 167.422 24.0112 167.113 23.8313C166.804 23.6458 166.559 23.39 166.379 23.0639C166.205 22.7379 166.118 22.3528 166.118 21.9086C166.118 21.4701 166.205 21.0878 166.379 20.7617C166.554 20.43 166.795 20.1742 167.105 19.9943C167.419 19.8088 167.782 19.7161 168.192 19.7161C168.597 19.7161 168.946 19.8088 169.238 19.9943C169.536 20.1742 169.764 20.4132 169.921 20.7111C170.079 21.0091 170.157 21.3296 170.157 21.6725C170.157 21.7343 170.154 21.7962 170.149 21.858C170.149 21.9199 170.149 21.9901 170.149 22.0688H166.818C166.835 22.3893 166.908 22.6563 167.037 22.87C167.172 23.078 167.338 23.2354 167.535 23.3422C167.737 23.449 167.951 23.5025 168.176 23.5025C168.468 23.5025 168.712 23.435 168.909 23.3001C169.106 23.1651 169.249 22.9824 169.339 22.7519H170.039C169.927 23.1398 169.71 23.4631 169.39 23.7217C169.075 23.9747 168.67 24.1012 168.176 24.1012ZM168.176 20.3148C167.838 20.3148 167.537 20.4188 167.273 20.6268C167.015 20.8292 166.866 21.1272 166.826 21.5207H169.457C169.44 21.144 169.311 20.8489 169.069 20.6352C168.828 20.4216 168.53 20.3148 168.176 20.3148ZM171.096 24V19.8172H171.737L171.796 20.6184C171.925 20.3429 172.122 20.1236 172.386 19.9606C172.651 19.7976 172.977 19.7161 173.365 19.7161V20.4582H173.171C172.923 20.4582 172.696 20.5031 172.488 20.5931C172.28 20.6774 172.114 20.8236 171.99 21.0316C171.866 21.2396 171.805 21.5263 171.805 21.8918V24H171.096Z" fill="#1C90F5"/>
</g>
<defs>
<clipPath id="clip0_143_189">
<rect width="188.78" height="61.78" fill="white" transform="translate(-7)"/>
</clipPath>
</defs>
</svg>
